<svg width="37" height="37" viewBox="0 0 37 37" fill="none" xmlns="http://www.w3.org/2000/svg">
<path d="M18.5907 0.438477C28.5234 0.438477 36.5755 8.49052 36.5755 18.4232C36.5755 28.3559 28.5234 36.408 18.5907 36.408C8.658 36.408 0.605957 28.3559 0.605957 18.4232C0.605957 8.49052 8.658 0.438477 18.5907 0.438477ZM10.7224 17.2992C10.1016 17.2992 9.59833 17.8024 9.59833 18.4232C9.59833 19.044 10.1016 19.5473 10.7224 19.5473H23.7453L18.9199 24.3727C18.481 24.8117 18.481 25.5234 18.9199 25.9623C19.3589 26.4013 20.0706 26.4013 20.5096 25.9623L27.2539 19.218C27.6928 18.7791 27.6928 18.0674 27.2539 17.6284L20.5096 10.8841C20.0706 10.4452 19.3589 10.4452 18.9199 10.8841C18.481 11.3231 18.481 12.0348 18.9199 12.4738L23.7453 17.2992H10.7224Z" fill="white"/>
</svg>
