<svg width="96" height="121" viewBox="0 0 96 121" fill="none" xmlns="http://www.w3.org/2000/svg">
<g opacity="0.3">
<path d="M63.8694 0.053125C64.6479 0.598498 65.3039 1.12647 66.0023 1.769C66.4188 2.13658 66.8359 2.5035 67.2534 2.86985C67.4688 3.06066 67.6843 3.25147 67.9063 3.44806C68.9773 4.38096 70.0817 5.26597 71.1877 6.15173C71.6374 6.51351 72.0871 6.87529 72.5367 7.23708C72.7602 7.41658 72.9838 7.59609 73.2141 7.78104C74.3205 8.66969 75.4254 9.56039 76.5298 10.4518C76.8578 10.7165 76.8578 10.7165 77.1925 10.9866C79.0483 12.4867 80.8925 14.0024 82.7354 15.5202C84.9962 17.3805 87.273 19.2184 89.5511 21.055C90.5148 21.8327 91.477 22.6125 92.4385 23.3932C92.75 23.6461 93.0616 23.8989 93.3826 24.1594C93.6651 24.3909 93.9476 24.6225 94.2387 24.861C94.5341 25.0755 94.8296 25.29 95.1339 25.5109C95.8041 26.1841 95.8041 26.1841 95.9998 26.9736C95.7244 28.1904 95.0477 28.8959 94.2387 29.7606C94.0818 29.9346 93.9249 30.1087 93.7633 30.2881C92.6747 31.4896 91.5588 32.6631 90.4364 33.8293C89.6145 34.7123 88.8494 35.6424 88.0858 36.5814C87.8491 36.8722 87.6075 37.1592 87.3508 37.4303C87.3629 38.0927 87.4002 38.7545 87.4487 39.415C87.4733 39.7765 87.4979 40.1381 87.5233 40.5107C87.6272 41.4125 87.7602 42.2365 87.9527 43.1161C88.2697 44.5959 88.5514 46.0802 88.8196 47.5706C88.8902 47.9611 88.8902 47.9611 88.9621 48.3596C89.0605 48.9054 89.1586 49.4513 89.2565 49.9973C89.4051 50.8248 89.5554 51.652 89.7057 52.4792C89.8018 53.0136 89.8978 53.5481 89.9937 54.0826C90.0381 54.3256 90.0824 54.5686 90.1281 54.819C90.349 56.0611 90.5416 57.3047 90.6971 58.5579C90.727 58.7981 90.7569 59.0383 90.7877 59.2857C90.7948 59.9228 90.7948 59.9228 90.341 60.8092C90.1098 61.0488 89.8785 61.2885 89.6403 61.5353C89.3775 61.8116 89.1148 62.0879 88.8441 62.3726C88.5579 62.6557 88.2718 62.9388 87.977 63.2305C87.7005 63.5205 87.4241 63.8104 87.1392 64.1092C79.1051 72.2802 68.0615 77.9451 56.8054 77.8879C56.2267 77.8851 56.2267 77.8851 55.6363 77.8822C48.148 77.7776 41.6743 75.4557 35.0654 71.8306C34.7232 71.6515 34.381 71.4725 34.0283 71.2879C32.8934 70.5978 32.1078 70.0098 31.6433 68.6836C31.1514 66.0643 30.8154 63.4475 30.5098 60.7976C30.3727 59.6603 30.2343 58.5232 30.0951 57.3862C30.0037 56.6093 29.9187 55.8315 29.8398 55.0531C29.4659 49.9103 29.4659 49.9103 26.8373 45.8178C25.9578 45.1468 25.0651 44.585 24.1074 44.0458C24.0041 43.9366 23.9008 43.8275 23.7943 43.715C22.5274 43.8695 21.2862 44.1081 20.0373 44.3766C20.041 44.6692 20.0447 44.9619 20.0486 45.2635C20.0715 48.5177 19.9296 51.7364 19.7169 54.9819C19.6832 55.5128 19.6496 56.0437 19.6161 56.5746C19.546 57.681 19.4749 58.7873 19.4029 59.8936C19.3122 61.2874 19.2236 62.6813 19.1356 64.0753C18.7628 69.9738 18.3662 75.8673 17.8457 81.7538C17.0192 81.7538 16.1926 81.7538 15.341 81.7538C15.6638 72.8671 16.2469 63.9972 16.8304 55.1262C16.8786 54.3926 16.9265 53.659 16.9739 52.9254C17.0832 51.2347 17.1972 49.5446 17.324 47.8553C17.3584 47.3873 17.3909 46.9191 17.4213 46.4508C17.4626 45.8235 17.512 45.1969 17.562 44.5704C17.5868 44.2328 17.6116 43.8953 17.6372 43.5475C17.8993 42.5107 18.2324 42.2601 19.0981 41.7304C19.614 41.495 20.1349 41.2705 20.6635 41.0688C18.0249 38.7917 15.3851 36.5191 12.6857 34.3225C10.6155 32.6242 10.6155 32.6242 10.0186 31.8072C10.0611 30.9986 10.0611 30.9986 10.3316 30.1534C10.9095 29.6362 10.9095 29.6362 11.672 29.1972C12.0982 28.9468 12.0982 28.9468 12.533 28.6914C12.8398 28.5189 13.1465 28.3464 13.4625 28.1687C13.7692 27.9911 14.076 27.8136 14.392 27.6306C15.3835 27.0594 16.3793 26.497 17.3761 25.936C22.2431 23.1813 27.062 20.3454 31.8633 17.4651C34.6963 15.7679 37.5485 14.1189 40.4445 12.5444C43.5648 10.8471 46.6263 9.07276 49.6484 7.18798C50.9383 6.38728 52.249 5.63109 53.5646 4.87855C54.5111 4.33339 55.4511 3.77702 56.3908 3.21871C57.0377 2.83877 57.6846 2.4589 58.3316 2.0791C58.6588 1.88297 58.9859 1.68683 59.3229 1.48475C59.6403 1.2997 59.9577 1.11464 60.2848 0.923985C60.5678 0.756469 60.8508 0.588953 61.1425 0.41636C62.1301 -0.00649982 62.8126 -0.0638538 63.8694 0.053125ZM60.0145 4.27047C59.6643 4.46953 59.6643 4.46953 59.3071 4.67263C58.5306 5.11503 57.7559 5.56073 56.9815 6.00702C56.7165 6.15924 56.4516 6.31146 56.1786 6.46829C54.757 7.28503 53.3367 8.10402 51.9171 8.92453C50.0341 10.0121 48.1462 11.0899 46.2583 12.1676C43.8601 13.5376 41.4702 14.9216 39.0902 16.3266C37.1647 17.4608 35.2254 18.567 33.2848 19.672C30.7963 21.0898 28.3252 22.5352 25.8685 24.0134C21.9789 26.3538 18.0376 28.5886 14.0887 30.8149C13.9538 32.076 13.9538 32.076 14.479 32.6252C14.6609 32.7752 14.8429 32.9253 15.0304 33.0799C15.2341 33.2513 15.4377 33.4226 15.6476 33.5992C15.8693 33.7787 16.091 33.9583 16.3194 34.1433C16.5445 34.3297 16.7697 34.5161 17.0016 34.7081C17.4686 35.0946 17.9367 35.4797 18.4057 35.8635C19.0648 36.4104 19.7096 36.9711 20.3516 37.5402C20.5463 37.7101 20.741 37.8799 20.9416 38.055C21.31 38.3766 21.6759 38.7015 22.0389 39.03C23.0197 39.8726 23.0197 39.8726 24.2346 40.0649C24.5026 39.9596 24.7706 39.8543 25.0467 39.7457C25.4103 39.614 25.774 39.4822 26.1486 39.3465C26.5971 39.1708 27.0451 38.9937 27.4927 38.8154C27.7428 38.717 27.993 38.6185 28.2507 38.5171C29.1661 38.1562 30.0807 37.7933 30.9953 37.4303C31.596 37.1926 32.1968 36.9551 32.7975 36.7175C34.7129 35.96 36.6278 35.2014 38.5424 34.4418C38.8433 34.3224 38.8433 34.3224 39.1502 34.2006C40.2354 33.7702 41.3204 33.3394 42.4054 32.9082C42.8601 32.7277 43.3148 32.5472 43.7695 32.3667C43.9814 32.2824 44.1933 32.1981 44.4116 32.1113C45.2584 31.7753 46.1045 31.4479 46.9627 31.1457C47.0919 30.7841 47.221 30.4225 47.3541 30.05C47.7878 28.931 48.2931 28.2787 49.3537 27.7268C51.0396 27.2263 52.7532 27.2562 54.4768 27.5072C55.5334 28.1687 55.5334 28.1687 56.0422 29.161C56.2691 30.1122 56.2911 30.8591 56.0422 31.8072C54.857 33.323 53.6365 33.7622 51.8229 34.0787C50.6275 34.1452 49.677 33.805 48.5281 33.4611C47.0564 33.6064 45.8339 34.0978 44.4776 34.7015C42.4654 35.5807 40.4359 36.336 38.3639 37.0414C37.1474 37.4689 35.9503 37.9413 34.7524 38.4227C34.134 38.6684 33.5156 38.9139 32.8971 39.1591C32.407 39.3536 32.407 39.3536 31.9071 39.5519C31.5739 39.6841 31.2407 39.8163 30.8975 39.9525C30.5583 40.0872 30.2191 40.222 29.8696 40.3608C29.5449 40.4895 29.2202 40.6183 28.8857 40.751C28.4448 40.926 28.4448 40.926 27.9949 41.1045C27.4332 41.3236 26.8671 41.5303 26.299 41.7304C26.7669 42.9499 27.4018 43.5482 28.3732 44.3559C28.682 44.6155 28.9907 44.8752 29.3088 45.1428C29.4786 45.2844 29.6483 45.426 29.8232 45.5719C30.6147 46.2366 31.3962 46.9139 32.1789 47.5899C33.955 49.123 35.742 50.6391 37.5506 52.129C39.4307 53.6781 41.2703 55.2758 43.1065 56.8825C44.6515 58.2314 46.2166 59.5484 47.7985 60.8486C49.5628 62.3046 51.2876 63.8102 53.0104 65.3205C53.3307 65.6009 53.3307 65.6009 53.6574 65.8871C53.9402 66.1355 53.9402 66.1355 54.2287 66.389C54.8221 66.8966 55.4288 67.3812 56.0422 67.8614C57.3735 67.3323 58.1758 66.2681 59.0948 65.1738C59.4299 64.7819 59.7654 64.3904 60.1013 63.9993C60.2639 63.8098 60.4265 63.6202 60.594 63.4248C61.1784 62.7542 61.7857 62.1114 62.4018 61.4733C63.1703 60.6746 63.8929 59.8582 64.5934 58.9925C65.5045 57.8714 66.4747 56.8253 67.4698 55.7882C68.6409 54.5677 69.7499 53.3156 70.8172 51.9933C71.7514 50.887 72.7629 49.8629 73.7609 48.8213C74.4061 48.1308 75.0137 47.429 75.6101 46.692C76.701 45.3437 77.8896 44.1134 79.0834 42.8674C79.7286 42.1769 80.3362 41.4751 80.9325 40.7381C81.7767 39.6948 82.6696 38.7257 83.5938 37.7611C84.5115 36.8032 85.3984 35.8418 86.2354 34.8048C87.138 33.6886 88.104 32.6518 89.0924 31.6212C90.3554 30.2978 91.5725 28.9845 92.6733 27.5072C92.6733 27.2889 92.6733 27.0706 92.6733 26.8456C92.2357 26.3999 92.2357 26.3999 91.6521 25.9567C91.4328 25.7818 91.2136 25.6069 90.9877 25.4267C90.7497 25.24 90.5117 25.0533 90.2664 24.861C89.7743 24.4696 89.2823 24.0781 88.7903 23.6865C88.5453 23.4927 88.3004 23.2988 88.0481 23.0991C87.1053 22.3507 86.1707 21.5913 85.2375 20.8297C84.7508 20.4338 84.7508 20.4338 84.2542 20.0299C83.9329 19.7686 83.6117 19.5072 83.2807 19.2379C82.6024 18.6865 81.924 18.1353 81.2456 17.584C80.9065 17.3084 80.5673 17.0327 80.2281 16.7571C79.9763 16.5524 79.9763 16.5524 79.7193 16.3436C74.1229 11.7955 74.1229 11.7955 73.6141 11.382C73.2752 11.1066 72.9363 10.8312 72.5973 10.5559C71.7449 9.86336 70.893 9.17032 70.0418 8.47618C69.1986 7.78864 68.3536 7.10354 67.5079 6.41935C66.9844 5.99421 66.4634 5.56587 65.9423 5.13745C65.6036 4.86212 65.2649 4.5869 64.926 4.31181C64.6249 4.06536 64.3239 3.81891 64.0137 3.56499C62.4933 2.50948 61.4351 3.4503 60.0145 4.27047Z" fill="#225ABB"/>
<path d="M20.6637 83.0769C22.8466 85.1801 23.5554 87.5085 23.7591 90.5671C23.7945 91.677 23.7945 91.677 23.7431 92.3761C23.5934 95.0596 24.4754 97.2481 25.4187 99.6982C25.7236 100.513 26.0282 101.328 26.3323 102.143C26.5584 102.744 26.5584 102.744 26.7892 103.357C30.094 112.329 30.094 112.329 30.3693 114.831C29.5017 115.748 28.7891 115.731 27.5821 115.945C27.3628 115.984 27.1435 116.024 26.9175 116.065C26.1965 116.194 25.475 116.319 24.7534 116.443C24.2521 116.532 23.7509 116.621 23.2497 116.709C19.2998 117.405 15.3424 118.039 11.3784 118.638C10.2465 118.813 9.11633 118.999 7.98614 119.187C7.5995 119.25 7.21287 119.313 6.81451 119.378C6.07306 119.5 5.3319 119.623 4.59111 119.749C4.25856 119.803 3.926 119.857 3.58337 119.913C3.29122 119.961 2.99907 120.01 2.69807 120.06C1.83148 120.127 1.14955 120.032 0.313086 119.793C0.209768 119.683 0.106449 119.574 0 119.462C0.117007 117.404 0.624616 115.821 1.44435 113.965C1.55898 113.699 1.67361 113.432 1.79171 113.157C2.03676 112.588 2.28336 112.02 2.53138 111.453C2.91975 110.563 3.30251 109.67 3.68411 108.777C4.79912 106.176 5.92798 103.588 7.15817 101.046C9.06691 97.0508 10.1309 94.055 9.71545 89.5463C9.57549 87.4224 10.5054 85.6026 11.7016 83.9452C14.2066 81.2987 17.7799 80.9322 20.6637 83.0769Z" fill="#225ABB"/>
<path d="M17.8458 84.3998C19.3512 85.1483 20.0828 86.0551 20.7431 87.621C21.2377 89.2052 21.3288 90.8366 21.2517 92.4963C21.1365 95.0522 21.7247 97.0439 22.591 99.4099C22.7231 99.7849 22.8551 100.16 22.9911 100.546C23.4102 101.734 23.8368 102.918 24.2641 104.101C24.6897 105.297 25.1137 106.492 25.537 107.688C25.8001 108.43 26.0649 109.171 26.3314 109.911C26.4505 110.244 26.5696 110.577 26.6923 110.919C26.798 111.212 26.9037 111.505 27.0126 111.807C27.2384 112.515 27.2384 112.515 27.2384 113.177C25.2237 113.504 25.2237 113.504 23.1683 113.839C23.1258 113.511 23.0833 113.183 23.0395 112.845C21.9286 104.234 21.9286 104.234 20.6636 95.6461C20.1451 95.5196 19.6227 95.4099 19.0982 95.3153C18.9948 95.4244 18.8915 95.5336 18.7851 95.6461C18.8359 99.2521 19.5166 102.891 20.012 106.454C20.1202 107.236 20.2263 108.017 20.3322 108.799C20.3654 109.034 20.3987 109.268 20.4329 109.51C20.6439 111.077 20.692 112.585 20.6636 114.169C19.8484 114.336 19.0331 114.501 18.2176 114.665C17.9865 114.713 17.7555 114.76 17.5174 114.809C16.5691 114.999 15.6826 115.162 14.7149 115.162C14.9216 111.669 15.1282 108.176 15.3411 104.577C14.8245 104.359 14.3079 104.14 13.7757 103.915C13.9841 102.286 14.3924 100.752 14.8336 99.1799C15.0265 98.2993 15.0635 97.5385 15.028 96.6384C14.5114 96.5292 13.9948 96.4201 13.4626 96.3076C11.9245 101.143 10.467 106.004 9.12098 110.903C8.60713 112.771 8.05964 114.627 7.51397 116.485C5.49926 116.648 5.49926 116.648 3.44385 116.815C3.72744 115.317 4.15862 114.112 4.76223 112.747C4.91457 112.397 4.91457 112.397 5.06998 112.04C5.28777 111.541 5.50627 111.042 5.72542 110.543C6.06902 109.759 6.40882 108.973 6.74776 108.187C7.74808 105.872 8.75806 103.571 9.86456 101.311C11.776 97.3451 12.5771 94.3455 12.2396 89.8756C12.1543 88.4566 12.3824 87.5882 13.1495 86.3844C14.575 84.7712 15.7617 84.2163 17.8458 84.3998Z" fill="#0D0D69"/>
<path d="M86.7248 53.6387C87.351 54.3002 87.351 54.3002 87.4806 55.2266C87.31 56.6194 86.8588 57.0389 85.903 58.0007C85.6725 58.2328 85.6725 58.2328 85.4374 58.4696C76.2602 67.5309 65.6951 72.1472 53.1072 71.9565C46.284 71.7056 40.3153 69.0158 34.4395 65.5465C35.4108 65.0333 36.0778 65.4885 37.1007 65.8152C38.8785 66.3466 40.6255 66.7188 42.4623 66.9316C42.8105 66.9727 42.8105 66.9727 43.1657 67.0147C44.474 67.1522 45.7594 67.2097 47.0742 67.1964C50.6165 67.1881 52.6674 67.508 55.2609 70.1592C55.9544 70.9249 55.9544 70.9249 56.6608 70.7776C57.3902 70.4674 57.6953 70.1524 58.1998 69.5209C60.6107 66.6527 62.4198 65.3154 65.9621 64.4248C70.3659 63.2018 74.597 61.2272 78.5846 58.931C78.9054 58.7486 78.9054 58.7486 79.2328 58.5625C81.84 57.0747 84.3469 55.5168 86.7248 53.6387Z" fill="#0D0D69"/>
<path d="M84.5333 40.0762C85.046 41.0572 85.3035 41.9386 85.4946 43.0389C85.5763 43.5093 85.5763 43.5093 85.6597 43.9892C85.7414 44.4775 85.7414 44.4775 85.8248 44.9757C85.8817 45.2974 85.9386 45.6191 85.9972 45.9506C86.6253 49.635 86.6253 49.635 86.4118 50.9916C85.7338 51.6731 85.2059 52.0932 84.4159 52.5835C84.206 52.7218 83.9961 52.8601 83.7798 53.0026C83.0975 53.4461 82.4082 53.8742 81.7155 54.2994C81.4879 54.4408 81.2603 54.5822 81.0258 54.7278C76.4636 57.5426 71.525 60.4966 66.3743 61.9071C66.0644 61.798 65.7544 61.6888 65.4351 61.5763C65.5678 61.4399 65.7006 61.3035 65.8374 61.1629C66.8199 60.1409 67.7673 59.107 68.6638 57.9999C69.529 56.9378 70.4401 55.9457 71.3837 54.9609C72.3014 54.003 73.1883 53.0416 74.0254 52.0046C75.0604 50.725 76.1838 49.5493 77.3169 48.3682C78.3321 47.3045 79.2778 46.2027 80.2039 45.0533C81.1656 43.9157 82.2051 42.8606 83.2382 41.7959C83.9495 41.0666 83.9495 41.0666 84.5333 40.0762Z" fill="#0D0D69"/>
<path d="M31.6216 50.3301C33.3138 51.651 34.9647 53.0144 36.5918 54.4234C37.0345 54.8051 37.4772 55.1867 37.92 55.5682C38.1306 55.7497 38.3411 55.9312 38.5581 56.1183C39.269 56.7294 39.9842 57.3345 40.7011 57.9378C42.1004 59.1185 43.4958 60.3043 44.8886 61.4936C45.1049 61.6774 45.3212 61.8612 45.5441 62.0505C46.5931 62.9479 47.5983 63.8462 48.5282 64.884C43.4027 65.1465 37.8227 64.3559 33.187 61.9071C32.9722 61.0205 32.9722 61.0205 32.7834 59.8462C32.7148 59.4235 32.6462 59.0007 32.5755 58.5651C32.541 58.3433 32.5065 58.1214 32.4709 57.8929C32.3664 57.2222 32.2573 56.5525 32.1475 55.8828C31.8486 54.0097 31.5767 52.2343 31.6216 50.3301Z" fill="#0D0D69"/>
<path d="M86.725 50.6611C86.88 52.1347 86.88 52.1347 87.0381 53.6381C81.2898 58.0368 75.0499 61.4463 68.3899 64.0367C68.1108 64.1459 67.8316 64.2551 67.5441 64.3676C65.7163 65.0568 63.9035 65.5301 61.9912 65.8766C63.0071 63.7932 64.1353 62.303 66.2436 61.4577C66.6906 61.308 67.1387 61.1617 67.5876 61.0184C73.9223 58.989 79.6525 55.4878 85.1004 51.5772C86.3824 50.6611 86.3824 50.6611 86.725 50.6611Z" fill="#225ABB"/>
<path d="M76.3929 68.5234C76.7028 68.6872 76.7028 68.6872 77.0191 68.8542C67.6461 74.4788 57.6354 76.9022 46.9628 74.1466C46.185 73.7822 46.185 73.7822 45.7104 73.485C46.1867 73.5326 46.6628 73.581 47.1389 73.6297C47.4041 73.6566 47.6692 73.6835 47.9424 73.7111C48.5852 73.786 49.2262 73.8786 49.8653 73.9828C58.8413 75.2417 67.638 73.4538 75.56 68.9279C75.8349 68.7944 76.1097 68.6609 76.3929 68.5234Z" fill="#0D0D69"/>
<path d="M64.809 73.8151C64.7057 74.0334 64.6023 74.2518 64.4959 74.4767C63.893 74.6369 63.893 74.6369 63.1457 74.7248C62.7795 74.7734 62.7795 74.7734 62.4058 74.823C61.5838 74.8054 61.1256 74.5858 60.4258 74.1459C61.9045 73.8908 63.3109 73.7828 64.809 73.8151Z" fill="#0D0D69"/>
</g>
</svg>
