<svg width="21" height="20" viewBox="0 0 21 20" fill="none" xmlns="http://www.w3.org/2000/svg">
<g clip-path="url(#clip0_2767_1000)">
<path d="M19.3149 9.4797C19.3149 14.6753 15.103 18.8871 9.90743 18.8871C4.71185 18.8871 0.5 14.6753 0.5 9.4797C0.5 4.28412 4.71185 0.0722656 9.90743 0.0722656C15.103 0.0722656 19.3149 4.28412 19.3149 9.4797Z" fill="url(#paint0_linear_2767_1000)"/>
<path d="M19.3149 9.4797C19.3149 14.6753 15.103 18.8871 9.90743 18.8871C4.71185 18.8871 0.5 14.6753 0.5 9.4797C0.5 4.28412 4.71185 0.0722656 9.90743 0.0722656C15.103 0.0722656 19.3149 4.28412 19.3149 9.4797Z" fill="url(#paint1_linear_2767_1000)"/>
<path d="M8.40224 12.3019V18.699C8.40224 18.8029 8.48648 18.8871 8.59039 18.8871H11.2245C11.3284 18.8871 11.4126 18.8029 11.4126 18.699V12.3019C11.4126 12.198 11.4969 12.1138 11.6008 12.1138H13.4823C13.5862 12.1138 13.6704 12.0295 13.6704 11.9256V9.66784C13.6704 9.56393 13.5862 9.4797 13.4823 9.4797H11.6008C11.4969 9.4797 11.4126 9.39558 11.4126 9.29167V7.59821C11.4126 6.84561 12.3534 6.46932 12.7297 6.46932H13.8586C13.9625 6.46932 14.0467 6.38508 14.0467 6.28117V4.02339C14.0467 3.91947 13.9625 3.83524 13.8586 3.83524H11.4126C9.60639 3.83524 8.40224 5.71672 8.40224 6.84561V9.29155C8.40224 9.39546 8.318 9.4797 8.21409 9.4797H6.33261C6.22869 9.4797 6.14446 9.56393 6.14446 9.66784V11.9256C6.14446 12.0295 6.22869 12.1138 6.33261 12.1138H8.21409C8.318 12.1138 8.40224 12.198 8.40224 12.3019Z" fill="white"/>
</g>
<defs>
<linearGradient id="paint0_linear_2767_1000" x1="9.90743" y1="0.0722656" x2="9.90743" y2="18.8871" gradientUnits="userSpaceOnUse">
<stop stop-color="#18ACFE"/>
<stop offset="1" stop-color="#0165E1"/>
</linearGradient>
<linearGradient id="paint1_linear_2767_1000" x1="9.90743" y1="0.0722656" x2="9.90743" y2="18.8871" gradientUnits="userSpaceOnUse">
<stop stop-color="#18ACFE"/>
<stop offset="1" stop-color="#0165E1"/>
</linearGradient>
<clipPath id="clip0_2767_1000">
<rect width="20.0001" height="19.8553" fill="white" transform="translate(0.5 0.0722656)"/>
</clipPath>
</defs>
</svg>
