<svg width="50" height="50" viewBox="0 0 50 50" fill="none" xmlns="http://www.w3.org/2000/svg">
<g clip-path="url(#clip0_126_131)">
<path d="M50 25.1945C50 23.4567 49.8623 21.7096 49.5685 20H26V29.8442H39.4966C38.9365 33.0192 36.635 36.2153 34 38L34.5019 44L42 44C46.7284 39.5475 50 32.9722 50 25.1945Z" fill="#4285F4"/>
<path d="M25.3909 50C32.1487 50 37.8477 47.8091 42 44.0273L34 38C31.7535 39.5091 28.779 40.2091 25.4001 40.2091C18.8633 40.2091 12.9887 35.8545 11 30H3V36.3727C7.25354 44.7273 15.9171 50 25.3909 50Z" fill="#34A853"/>
<path d="M11 30C9.85376 26.9574 10.3538 23.0426 11.5 20L12 14L2.99994 13.5C-0.881083 20.4223 -0.970289 29.0777 2.91073 36L11 30Z" fill="#FBBC04"/>
<path d="M25.8733 9.78731C29.5225 9.7328 33.0494 11.0594 35.6922 13.4944L43 6.43457C38.3727 2.23683 32.2311 -0.0710218 25.8733 0.00166636C16.1954 0.00166636 7.34517 5.14086 3 13.5L11.5022 20C13.5243 14.1395 19.1956 9.78731 25.8733 9.78731Z" fill="#EA4335"/>
</g>
<defs>
<clipPath id="clip0_126_131">
<rect width="50" height="50" fill="white"/>
</clipPath>
</defs>
</svg>
