<svg width="24" height="24" viewBox="0 0 24 24" fill="none" xmlns="http://www.w3.org/2000/svg">
<path d="M12.8224 3.97364C13.4062 3.9714 13.9899 3.97727 14.5735 3.99124L14.7287 3.99684C14.9079 4.00324 15.0847 4.01124 15.2983 4.02084C16.1494 4.06084 16.7302 4.19523 17.2398 4.39283C17.7678 4.59602 18.2125 4.87121 18.6573 5.31599C19.064 5.71567 19.3787 6.19912 19.5797 6.73275C19.7773 7.24233 19.9116 7.82391 19.9516 8.67508C19.9612 8.88787 19.9692 9.06547 19.9756 9.24466L19.9804 9.39986C19.9947 9.98319 20.0008 10.5667 19.9988 11.1502L19.9996 11.747V12.7949C20.0016 13.3787 19.9955 13.9625 19.9812 14.5461L19.9764 14.7013C19.97 14.8805 19.962 15.0573 19.9524 15.2709C19.9124 16.122 19.7765 16.7028 19.5797 17.2124C19.3794 17.7466 19.0646 18.2304 18.6573 18.6299C18.2573 19.0366 17.7736 19.3513 17.2398 19.5523C16.7302 19.7499 16.1494 19.8843 15.2983 19.9243C15.0847 19.9339 14.9079 19.9419 14.7287 19.9483L14.5735 19.9531C13.9899 19.9673 13.4062 19.9735 12.8224 19.9715L12.2256 19.9723H11.1785C10.5947 19.9743 10.011 19.9681 9.42738 19.9539L9.27219 19.9491C9.08229 19.9422 8.89243 19.9342 8.70262 19.9251C7.85146 19.8851 7.27069 19.7491 6.76032 19.5523C6.22649 19.3518 5.74296 19.037 5.34359 18.6299C4.93645 18.2302 4.62141 17.7464 4.42044 17.2124C4.22285 16.7028 4.08846 16.122 4.04846 15.2709C4.03955 15.081 4.03155 14.8912 4.02446 14.7013L4.02046 14.5461C4.00571 13.9625 3.99905 13.3787 4.00046 12.7949V11.1502C3.99823 10.5667 4.0041 9.98319 4.01806 9.39986L4.02366 9.24466C4.03006 9.06547 4.03806 8.88787 4.04766 8.67508C4.08766 7.82311 4.22205 7.24313 4.41964 6.73275C4.62073 6.19886 4.93638 5.71554 5.34439 5.31679C5.74349 4.90941 6.22672 4.59408 6.76032 4.39283C7.27069 4.19523 7.85066 4.06084 8.70262 4.02084L9.27219 3.99684L9.42738 3.99284C10.0107 3.9781 10.5942 3.97143 11.1777 3.97284L12.8224 3.97364ZM12.0001 7.9735C11.4701 7.96601 10.9439 8.06392 10.4521 8.26155C9.96031 8.45918 9.5127 8.75258 9.13527 9.12471C8.75785 9.49684 8.45815 9.94027 8.25359 10.4292C8.04903 10.9182 7.94369 11.4429 7.94369 11.973C7.94369 12.503 8.04903 13.0277 8.25359 13.5167C8.45815 14.0057 8.75785 14.4491 9.13527 14.8212C9.5127 15.1934 9.96031 15.4868 10.4521 15.6844C10.9439 15.882 11.4701 15.9799 12.0001 15.9724C13.0609 15.9724 14.0782 15.551 14.8283 14.8009C15.5784 14.0508 15.9998 13.0334 15.9998 11.9726C15.9998 10.9117 15.5784 9.89436 14.8283 9.14424C14.0782 8.39412 13.0609 7.9735 12.0001 7.9735ZM12.0001 9.57345C12.3188 9.56758 12.6356 9.62529 12.9318 9.74321C13.2281 9.86113 13.4978 10.0369 13.7254 10.2603C13.9529 10.4836 14.1337 10.7501 14.2571 11.0441C14.3805 11.3381 14.4441 11.6537 14.4441 11.9726C14.4442 12.2914 14.3807 12.6071 14.2574 12.9011C14.1341 13.1951 13.9534 13.4617 13.726 13.6851C13.4985 13.9085 13.2288 14.0844 12.9326 14.2024C12.6364 14.3204 12.3196 14.3783 12.0009 14.3725C11.3644 14.3725 10.7539 14.1196 10.3039 13.6696C9.85382 13.2195 9.60097 12.6091 9.60097 11.9726C9.60097 11.3361 9.85382 10.7256 10.3039 10.2756C10.7539 9.8255 11.3644 9.57265 12.0009 9.57265L12.0001 9.57345ZM16.1998 6.77355C15.9418 6.78387 15.6977 6.89366 15.5188 7.07991C15.3398 7.26616 15.2399 7.51443 15.2399 7.77271C15.2399 8.03099 15.3398 8.27926 15.5188 8.46551C15.6977 8.65176 15.9418 8.76155 16.1998 8.77188C16.465 8.77188 16.7194 8.66652 16.9069 8.47899C17.0944 8.29146 17.1998 8.03712 17.1998 7.77191C17.1998 7.5067 17.0944 7.25236 16.9069 7.06483C16.7194 6.8773 16.465 6.77195 16.1998 6.77195V6.77355Z" fill="#4F4F4F"/>
</svg>
