<svg width="60" height="60" viewBox="0 0 60 60" fill="none" xmlns="http://www.w3.org/2000/svg">
<circle cx="30" cy="30" r="30" fill="#7266AE"/>
<path d="M30.0056 23.2612C26.2791 23.2612 23.2732 26.2671 23.2732 29.9937C23.2732 33.7202 26.2791 36.7261 30.0056 36.7261C33.7322 36.7261 36.738 33.7202 36.738 29.9937C36.738 26.2671 33.7322 23.2612 30.0056 23.2612ZM30.0056 34.3706C27.5974 34.3706 25.6287 32.4077 25.6287 29.9937C25.6287 27.5796 27.5916 25.6167 30.0056 25.6167C32.4197 25.6167 34.3826 27.5796 34.3826 29.9937C34.3826 32.4077 32.4138 34.3706 30.0056 34.3706ZM38.5837 22.9858C38.5837 23.8589 37.8806 24.5562 37.0134 24.5562C36.1404 24.5562 35.4431 23.853 35.4431 22.9858C35.4431 22.1187 36.1462 21.4155 37.0134 21.4155C37.8806 21.4155 38.5837 22.1187 38.5837 22.9858ZM43.0427 24.5796C42.9431 22.4761 42.4626 20.6128 40.9216 19.0776C39.3865 17.5425 37.5232 17.062 35.4197 16.9565C33.2517 16.8335 26.7537 16.8335 24.5857 16.9565C22.488 17.0562 20.6248 17.5366 19.0837 19.0718C17.5427 20.6069 17.0681 22.4702 16.9626 24.5737C16.8396 26.7417 16.8396 33.2397 16.9626 35.4077C17.0623 37.5112 17.5427 39.3745 19.0837 40.9097C20.6248 42.4448 22.4822 42.9253 24.5857 43.0308C26.7537 43.1538 33.2517 43.1538 35.4197 43.0308C37.5232 42.9312 39.3865 42.4507 40.9216 40.9097C42.4568 39.3745 42.9373 37.5112 43.0427 35.4077C43.1658 33.2397 43.1658 26.7476 43.0427 24.5796ZM40.2419 37.7339C39.7849 38.8823 38.9001 39.7671 37.7459 40.23C36.0173 40.9155 31.9158 40.7573 30.0056 40.7573C28.0955 40.7573 23.988 40.9097 22.2654 40.23C21.1169 39.7729 20.2322 38.8882 19.7693 37.7339C19.0837 36.0054 19.2419 31.9038 19.2419 29.9937C19.2419 28.0835 19.0896 23.9761 19.7693 22.2534C20.2263 21.105 21.1111 20.2202 22.2654 19.7573C23.9939 19.0718 28.0955 19.23 30.0056 19.23C31.9158 19.23 36.0232 19.0776 37.7459 19.7573C38.8943 20.2144 39.7791 21.0991 40.2419 22.2534C40.9275 23.9819 40.7693 28.0835 40.7693 29.9937C40.7693 31.9038 40.9275 36.0112 40.2419 37.7339Z" fill="#FEFEFE"/>
</svg>
