<svg width="24" height="24" viewBox="0 0 24 24" fill="none" xmlns="http://www.w3.org/2000/svg">
<path d="M7.43821 4.77857C7.43798 5.25004 7.25046 5.7021 6.91691 6.03532C6.58336 6.36853 6.1311 6.55559 5.65962 6.55536C5.18815 6.55512 4.73608 6.36761 4.40286 6.03406C4.06964 5.70051 3.88258 5.24826 3.88281 4.77679C3.88305 4.30532 4.07057 3.85325 4.40412 3.52004C4.73767 3.18683 5.18993 2.99976 5.6614 3C6.13288 3.00024 6.58495 3.18775 6.91817 3.5213C7.25138 3.85484 7.43845 4.3071 7.43821 4.77857ZM7.49154 7.87173H3.93614V19H7.49154V7.87173ZM13.1091 7.87173H9.57145V19H13.0735V13.1603C13.0735 9.90717 17.3133 9.60497 17.3133 13.1603V19H20.8243V11.9515C20.8243 6.46736 14.549 6.6718 13.0735 9.36498L13.1091 7.87173Z" fill="#4F4F4F"/>
</svg>
