<svg width="10" height="15" viewBox="0 0 10 15" fill="none" xmlns="http://www.w3.org/2000/svg">
<path d="M5 3.21429C5.4736 3.21429 5.9278 3.40242 6.26269 3.73731C6.59758 4.0722 6.78571 4.5264 6.78571 5C6.78571 5.2345 6.73953 5.46671 6.64979 5.68336C6.56004 5.90002 6.42851 6.09687 6.26269 6.26269C6.09687 6.42851 5.90002 6.56004 5.68336 6.64979C5.46671 6.73953 5.2345 6.78571 5 6.78571C4.5264 6.78571 4.0722 6.59758 3.73731 6.26269C3.40242 5.9278 3.21429 5.4736 3.21429 5C3.21429 4.5264 3.40242 4.0722 3.73731 3.73731C4.0722 3.40242 4.5264 3.21429 5 3.21429ZM5 0C6.32608 0 7.59785 0.526784 8.53553 1.46447C9.47322 2.40215 10 3.67392 10 5C10 8.75 5 14.2857 5 14.2857C5 14.2857 0 8.75 0 5C0 3.67392 0.526784 2.40215 1.46447 1.46447C2.40215 0.526784 3.67392 0 5 0ZM5 1.42857C4.0528 1.42857 3.14439 1.80485 2.47462 2.47462C1.80485 3.14439 1.42857 4.0528 1.42857 5C1.42857 5.71429 1.42857 7.14286 5 11.9357C8.57143 7.14286 8.57143 5.71429 8.57143 5C8.57143 4.0528 8.19515 3.14439 7.52538 2.47462C6.85561 1.80485 5.9472 1.42857 5 1.42857Z" fill="white"/>
</svg>
