<svg width="45" height="45" viewBox="0 0 45 45" fill="none" xmlns="http://www.w3.org/2000/svg">
<circle cx="22.5" cy="22.5" r="22.5" fill="#0D0D68"/>
<g clip-path="url(#clip0_408_119)">
<path d="M23 11C18.0267 11 14 15.0319 14 20C14 23.3336 15.1246 24.3754 21.0908 33.9418C21.9714 35.3536 24.0296 35.3519 24.9091 33.9418C30.8785 24.3703 32 23.333 32 20C32 15.0267 27.9681 11 23 11ZM23 32.75C17.027 23.1728 16.25 22.5682 16.25 20C16.25 16.2721 19.2721 13.25 23 13.25C26.7279 13.25 29.75 16.2721 29.75 20C29.75 22.5572 29.0391 23.0668 23 32.75ZM19.25 20C19.25 17.9289 20.9289 16.25 23 16.25C25.0711 16.25 26.75 17.9289 26.75 20C26.75 22.0711 25.0711 23.75 23 23.75C20.9289 23.75 19.25 22.0711 19.25 20Z" fill="#E2E8F0"/>
</g>
<defs>
<clipPath id="clip0_408_119">
<rect width="18" height="24" fill="white" transform="translate(14 11)"/>
</clipPath>
</defs>
</svg>
