<svg width="45" height="45" viewBox="0 0 45 45" fill="none" xmlns="http://www.w3.org/2000/svg">
<circle cx="22.5" cy="22.5" r="22.5" fill="#0D0D68"/>
<path d="M32.6562 13H12.3438C11.0493 13 10 14.0633 10 15.375V29.625C10 30.9367 11.0493 32 12.3438 32H32.6562C33.9507 32 35 30.9367 35 29.625V15.375C35 14.0633 33.9507 13 32.6562 13ZM32.6562 15.375V17.394C31.5614 18.2974 29.816 19.7023 26.0846 22.663C25.2623 23.3185 23.6334 24.8932 22.5 24.8748C21.3668 24.8934 19.7374 23.3182 18.9154 22.663C15.1846 19.7027 13.4387 18.2976 12.3438 17.394V15.375H32.6562ZM12.3438 29.625V20.4416C13.4626 21.3446 15.0493 22.6118 17.4677 24.5308C18.5349 25.3821 20.4039 27.2614 22.5 27.25C24.5858 27.2614 26.4311 25.4094 27.5319 24.5312C29.9502 22.6123 31.5374 21.3447 32.6562 20.4416V29.625H12.3438Z" fill="#E2E8F0"/>
</svg>
