<svg width="45" height="45" viewBox="0 0 45 45" fill="none" xmlns="http://www.w3.org/2000/svg">
<circle cx="22.5" cy="22.5" r="22.5" fill="#0D0D68"/>
<g clip-path="url(#clip0_408_118)">
<path d="M18 17.9375V16.0625C18 15.7531 18.2531 15.5 18.5625 15.5H20.4375C20.7469 15.5 21 15.7531 21 16.0625V17.9375C21 18.2469 20.7469 18.5 20.4375 18.5H18.5625C18.2531 18.5 18 18.2469 18 17.9375ZM24.5625 18.5H26.4375C26.7469 18.5 27 18.2469 27 17.9375V16.0625C27 15.7531 26.7469 15.5 26.4375 15.5H24.5625C24.2531 15.5 24 15.7531 24 16.0625V17.9375C24 18.2469 24.2531 18.5 24.5625 18.5ZM18.5625 23H20.4375C20.7469 23 21 22.7469 21 22.4375V20.5625C21 20.2531 20.7469 20 20.4375 20H18.5625C18.2531 20 18 20.2531 18 20.5625V22.4375C18 22.7469 18.2531 23 18.5625 23ZM24.5625 23H26.4375C26.7469 23 27 22.7469 27 22.4375V20.5625C27 20.2531 26.7469 20 26.4375 20H24.5625C24.2531 20 24 20.2531 24 20.5625V22.4375C24 22.7469 24.2531 23 24.5625 23ZM21 26.9375V25.0625C21 24.7531 20.7469 24.5 20.4375 24.5H18.5625C18.2531 24.5 18 24.7531 18 25.0625V26.9375C18 27.2469 18.2531 27.5 18.5625 27.5H20.4375C20.7469 27.5 21 27.2469 21 26.9375ZM24.5625 27.5H26.4375C26.7469 27.5 27 27.2469 27 26.9375V25.0625C27 24.7531 26.7469 24.5 26.4375 24.5H24.5625C24.2531 24.5 24 24.7531 24 25.0625V26.9375C24 27.2469 24.2531 27.5 24.5625 27.5ZM33 33.3125V35H12V33.3125C12 33.0031 12.2531 32.75 12.5625 32.75H13.4766V12.125C13.4766 11.5016 13.9781 11 14.6016 11H30.3984C31.0219 11 31.5234 11.5016 31.5234 12.125V32.75H32.4375C32.7469 32.75 33 33.0031 33 33.3125ZM15.7266 32.7031H21V29.5625C21 29.2531 21.2531 29 21.5625 29H23.4375C23.7469 29 24 29.2531 24 29.5625V32.7031H29.2734V13.2969L15.75 13.25L15.7266 32.7031Z" fill="#E2E8F0"/>
</g>
<defs>
<clipPath id="clip0_408_118">
<rect width="21" height="24" fill="white" transform="translate(12 11)"/>
</clipPath>
</defs>
</svg>
