<svg width="10" height="12" viewBox="0 0 10 12" fill="none" xmlns="http://www.w3.org/2000/svg">
<path d="M2.85714 3.46875V2.53125C2.85714 2.37656 2.97768 2.25 3.125 2.25H4.01786C4.16518 2.25 4.28571 2.37656 4.28571 2.53125V3.46875C4.28571 3.62344 4.16518 3.75 4.01786 3.75H3.125C2.97768 3.75 2.85714 3.62344 2.85714 3.46875ZM5.98214 3.75H6.875C7.02232 3.75 7.14286 3.62344 7.14286 3.46875V2.53125C7.14286 2.37656 7.02232 2.25 6.875 2.25H5.98214C5.83482 2.25 5.71429 2.37656 5.71429 2.53125V3.46875C5.71429 3.62344 5.83482 3.75 5.98214 3.75ZM3.125 6H4.01786C4.16518 6 4.28571 5.87344 4.28571 5.71875V4.78125C4.28571 4.62656 4.16518 4.5 4.01786 4.5H3.125C2.97768 4.5 2.85714 4.62656 2.85714 4.78125V5.71875C2.85714 5.87344 2.97768 6 3.125 6ZM5.98214 6H6.875C7.02232 6 7.14286 5.87344 7.14286 5.71875V4.78125C7.14286 4.62656 7.02232 4.5 6.875 4.5H5.98214C5.83482 4.5 5.71429 4.62656 5.71429 4.78125V5.71875C5.71429 5.87344 5.83482 6 5.98214 6ZM4.28571 7.96875V7.03125C4.28571 6.87656 4.16518 6.75 4.01786 6.75H3.125C2.97768 6.75 2.85714 6.87656 2.85714 7.03125V7.96875C2.85714 8.12344 2.97768 8.25 3.125 8.25H4.01786C4.16518 8.25 4.28571 8.12344 4.28571 7.96875ZM5.98214 8.25H6.875C7.02232 8.25 7.14286 8.12344 7.14286 7.96875V7.03125C7.14286 6.87656 7.02232 6.75 6.875 6.75H5.98214C5.83482 6.75 5.71429 6.87656 5.71429 7.03125V7.96875C5.71429 8.12344 5.83482 8.25 5.98214 8.25ZM10 11.1562V12H0V11.1562C0 11.0016 0.120536 10.875 0.267857 10.875H0.703125V0.5625C0.703125 0.250781 0.941964 0 1.23884 0H8.76116C9.05804 0 9.29688 0.250781 9.29688 0.5625V10.875H9.73214C9.87946 10.875 10 11.0016 10 11.1562ZM1.77455 10.8516H4.28571V9.28125C4.28571 9.12656 4.40625 9 4.55357 9H5.44643C5.59375 9 5.71429 9.12656 5.71429 9.28125V10.8516H8.22545V1.14844L1.78571 1.125L1.77455 10.8516Z" fill="white"/>
</svg>
