<svg width="45" height="45" viewBox="0 0 45 45" fill="none" xmlns="http://www.w3.org/2000/svg">
<circle cx="22.5" cy="22.5" r="22.5" fill="#6255A4"/>
<path d="M32.4748 12.9835L28.4275 12.0509C27.4995 11.836 26.5543 12.3174 26.1805 13.1941L24.3115 17.5564C23.9678 18.3558 24.1998 19.3014 24.8743 19.8515L26.5929 21.2569C25.3641 23.509 23.5081 25.3656 21.2567 26.5905L19.8518 24.8714C19.3018 24.1966 18.3566 23.9645 17.5575 24.3084L13.1923 26.1779C12.3158 26.5518 11.8389 27.4974 12.0494 28.4257L12.9818 32.4743C13.188 33.3725 13.9785 34 14.898 34C25.42 34.0043 34 25.4817 34 14.9004C34 13.9806 33.3727 13.1898 32.4748 12.9835ZM14.9796 31.9413L14.0817 28.0432L18.3008 26.2338L20.6939 29.1606C24.9388 27.1664 27.1643 24.9487 29.1579 20.6939L26.232 18.3L28.0408 14.0795L31.9377 14.9777C31.8947 24.3298 24.3287 31.8984 14.9796 31.9413Z" fill="#E2E8F0"/>
</svg>
