<svg width="180" height="110" viewBox="0 0 180 110" fill="none" xmlns="http://www.w3.org/2000/svg">
<path fill-rule="evenodd" clip-rule="evenodd" d="M0.0514036 10.8936H144.028C163.893 10.8936 179.998 26.9976 179.998 46.8631V96.2225C162.896 104.912 143.544 109.81 123.048 109.81C62.7784 109.81 12.4009 67.459 0.0514036 10.8936Z" fill="#1A69F0"/>
<path d="M66.4561 44.2851L72.9306 55.3158C76.7673 57.2342 80.3643 58.1933 83.7214 58.1933C85.1602 58.1933 86.8388 57.8737 88.7571 57.2341C90.5156 56.5946 92.1942 55.6355 93.7929 54.3566C95.3916 53.0777 96.7503 51.5589 97.8694 49.8005C98.8286 47.8821 99.3082 45.644 99.3082 43.0862C99.3082 40.2086 99.1483 37.4109 98.8286 34.6933C98.349 31.8157 97.4697 28.7782 96.1908 25.581C94.912 22.3838 93.0735 18.8667 90.6755 15.0299C88.2775 11.1932 85.0803 6.79692 81.0837 1.84111C78.5258 0.881935 76.2877 0.402344 74.3693 0.402344C72.2911 0.402344 70.8523 1.12174 70.053 2.56052C70.2129 3.35984 70.5326 4.31902 71.0122 5.43806C71.3319 6.39727 71.8914 7.67618 72.6908 9.27483L76.5275 16.7085C78.286 21.0249 79.4051 25.1014 79.8847 28.9382C78.6057 29.0981 77.167 29.4976 75.5683 30.1371C73.8098 30.7766 71.8115 31.6558 69.5734 32.7749C67.4952 37.0912 66.4561 40.928 66.4561 44.2851ZM106.022 44.2851L112.497 55.3158C116.334 57.2342 119.931 58.1933 123.288 58.1933C124.727 58.1933 126.405 57.8737 128.324 57.2341C130.082 56.5946 131.761 55.6355 133.359 54.3566C134.958 53.0777 136.317 51.5589 137.436 49.8005C138.395 47.8821 138.875 45.644 138.875 43.0862C138.875 40.2086 138.715 37.4109 138.395 34.6933C137.915 31.8157 137.036 28.7782 135.757 25.581C134.478 22.3838 132.64 18.8667 130.242 15.0299C127.844 11.1932 124.647 6.79692 120.65 1.84111C118.092 0.881935 115.854 0.402344 113.936 0.402344C111.857 0.402344 110.419 1.12174 109.619 2.56052C109.779 3.35984 110.099 4.31902 110.579 5.43806C110.898 6.39727 111.458 7.67618 112.257 9.27483L116.094 16.7085C117.852 21.0249 118.972 25.1014 119.451 28.9382C118.172 29.0981 116.733 29.4976 115.135 30.1371C113.376 30.7766 111.378 31.6558 109.14 32.7749C107.062 37.0912 106.022 40.928 106.022 44.2851Z" fill="#0D0D68"/>
</svg>
