<svg width="25" height="24" viewBox="0 0 25 24" fill="none" xmlns="http://www.w3.org/2000/svg">
<g clip-path="url(#clip0_2767_985)">
<path fill-rule="evenodd" clip-rule="evenodd" d="M2.98155 12C3.09163 12.1889 3.23758 12.4296 3.41838 12.7075C3.88276 13.4213 4.57047 14.3706 5.46331 15.3161C7.26735 17.2264 9.78959 19 12.9127 19C16.0358 19 18.558 17.2264 20.3621 15.3161C21.2549 14.3706 21.9426 13.4213 22.407 12.7075C22.5878 12.4296 22.7338 12.1889 22.8438 12C22.7338 11.8111 22.5878 11.5704 22.407 11.2925C21.9426 10.5787 21.2549 9.6294 20.3621 8.68394C18.558 6.77356 16.0358 5 12.9127 5C9.78959 5 7.26735 6.77356 5.46331 8.68394C4.57047 9.6294 3.88276 10.5787 3.41838 11.2925C3.23758 11.5704 3.09163 11.8111 2.98155 12ZM23.9929 12C24.8938 11.5528 24.8937 11.5524 24.8935 11.5521L24.8919 11.5489L24.8884 11.542L24.877 11.5198C24.8674 11.5013 24.8538 11.4753 24.8363 11.4424C24.8012 11.3767 24.7504 11.2832 24.6839 11.166C24.5512 10.9316 24.3557 10.6015 24.0993 10.2075C23.5879 9.42131 22.8276 8.3706 21.8318 7.31606C19.8585 5.22644 16.8406 3 12.9127 3C8.98475 3 5.9669 5.22644 3.99359 7.31606C2.99776 8.3706 2.23748 9.42131 1.72605 10.2075C1.46971 10.6015 1.27424 10.9316 1.14146 11.166C1.07503 11.2832 1.02418 11.3767 0.989135 11.4424C0.971612 11.4753 0.958032 11.5013 0.948425 11.5198L0.936995 11.542L0.933518 11.5489L0.932341 11.5512C0.932156 11.5516 0.931538 11.5528 1.83249 12L0.931538 11.5528C0.789748 11.8343 0.789748 12.1657 0.931538 12.4472L1.83249 12C0.931538 12.4472 0.931353 12.4468 0.931538 12.4472L0.933518 12.4511L0.936995 12.458L0.948425 12.4802C0.958032 12.4987 0.971612 12.5247 0.989135 12.5576C1.02418 12.6233 1.07503 12.7168 1.14146 12.834C1.27424 13.0684 1.46971 13.3985 1.72605 13.7925C2.23748 14.5787 2.99776 15.6294 3.99359 16.6839C5.9669 18.7736 8.98475 21 12.9127 21C16.8406 21 19.8585 18.7736 21.8318 16.6839C22.8276 15.6294 23.5879 14.5787 24.0993 13.7925C24.3557 13.3985 24.5512 13.0684 24.6839 12.834C24.7504 12.7168 24.8012 12.6233 24.8363 12.5576C24.8538 12.5247 24.8674 12.4987 24.877 12.4802L24.8884 12.458L24.8919 12.4511L24.893 12.4488C24.8932 12.4484 24.8938 12.4472 23.9929 12ZM23.9929 12L24.8938 12.4472C25.0356 12.1657 25.0353 11.8336 24.8935 11.5521L23.9929 12Z" fill="#94A3B8"/>
<path fill-rule="evenodd" clip-rule="evenodd" d="M12.9125 10C11.7998 10 10.8979 10.8954 10.8979 12C10.8979 13.1046 11.7998 14 12.9125 14C14.0251 14 14.9271 13.1046 14.9271 12C14.9271 10.8954 14.0251 10 12.9125 10ZM8.8833 12C8.8833 9.79086 10.6872 8 12.9125 8C15.1377 8 16.9416 9.79086 16.9416 12C16.9416 14.2091 15.1377 16 12.9125 16C10.6872 16 8.8833 14.2091 8.8833 12Z" fill="#94A3B8"/>
</g>
<defs>
<clipPath id="clip0_2767_985">
<rect width="24.175" height="24" fill="white" transform="translate(0.825195)"/>
</clipPath>
</defs>
</svg>
