<svg width="32" height="32" viewBox="0 0 32 32" fill="none" xmlns="http://www.w3.org/2000/svg">
<path d="M3.42857 0.285645H14.1071C15.3214 0.285645 16.4786 0.767073 17.3357 1.62493L29.9071 14.1928C31.6929 15.9785 31.6929 18.8785 29.9071 20.6642L20.3786 30.1928C18.5929 31.9785 15.6929 31.9785 13.9071 30.1928L1.33929 17.6214C0.481643 16.7642 0 15.6071 0 14.3928V3.71422C0 1.82064 1.535 0.285645 3.42857 0.285645ZM8 10.5714C9.26429 10.5714 10.2857 9.54993 10.2857 8.28564C10.2857 7.02136 9.26429 5.99993 8 5.99993C6.73786 5.99993 5.71429 7.02136 5.71429 8.28564C5.71429 9.54993 6.73786 10.5714 8 10.5714Z" fill="#FFD700"/>
</svg>
