<svg width="24" height="24" viewBox="0 0 24 24" fill="none" xmlns="http://www.w3.org/2000/svg">
<path d="M16.2003 6.45393C15.5927 5.76026 15.2579 4.86943 15.2581 3.94727H12.5114V14.9695C12.4903 15.566 12.2384 16.1309 11.809 16.5454C11.3796 16.9599 10.8061 17.1916 10.2092 17.1917C8.94701 17.1917 7.89813 16.1606 7.89813 14.8806C7.89813 13.3517 9.37368 12.205 10.8937 12.6762V9.86727C7.82702 9.45838 5.14258 11.8406 5.14258 14.8806C5.14258 17.8406 7.59591 19.9473 10.2003 19.9473C12.9914 19.9473 15.2581 17.6806 15.2581 14.8806V9.28949C16.3719 10.0894 17.7091 10.5185 19.0803 10.5162V7.76949C19.0803 7.76949 17.4092 7.84949 16.2003 6.45393Z" fill="#4F4F4F"/>
</svg>
