<svg width="60" height="60" viewBox="0 0 60 60" fill="none" xmlns="http://www.w3.org/2000/svg">
<circle cx="30" cy="30" r="30" fill="#7266AE"/>
<g clip-path="url(#clip0_256_97)">
<path d="M38.8305 21.3102C36.5391 19.0133 33.4875 17.75 30.2445 17.75C23.5508 17.75 18.1039 23.1969 18.1039 29.8906C18.1039 32.0289 18.6617 34.118 19.7227 35.9609L18 42.25L24.4367 40.5602C26.2086 41.5281 28.2047 42.0367 30.2391 42.0367H30.2445C36.9328 42.0367 42.5 36.5898 42.5 29.8961C42.5 26.6531 41.1219 23.607 38.8305 21.3102ZM30.2445 39.9914C28.4289 39.9914 26.6516 39.5047 25.1039 38.5859L24.7375 38.3672L20.9203 39.368L21.9375 35.6438L21.6969 35.2609C20.6852 33.6531 20.1547 31.7992 20.1547 29.8906C20.1547 24.3289 24.6828 19.8008 30.25 19.8008C32.9461 19.8008 35.4781 20.8508 37.3813 22.7594C39.2844 24.668 40.4547 27.2 40.4492 29.8961C40.4492 35.4633 35.8062 39.9914 30.2445 39.9914ZM35.7789 32.4336C35.4781 32.2805 33.9852 31.5477 33.7063 31.4492C33.4273 31.3453 33.225 31.2961 33.0227 31.6023C32.8203 31.9086 32.2406 32.5867 32.0602 32.7945C31.8852 32.9969 31.7047 33.0242 31.4039 32.8711C29.6211 31.9797 28.4508 31.2797 27.275 29.2617C26.9633 28.7258 27.5867 28.7641 28.1664 27.6047C28.2648 27.4023 28.2156 27.2273 28.1391 27.0742C28.0625 26.9211 27.4555 25.4281 27.2039 24.8211C26.9578 24.2305 26.7063 24.3125 26.5203 24.3016C26.3453 24.2906 26.143 24.2906 25.9406 24.2906C25.7383 24.2906 25.4102 24.3672 25.1312 24.668C24.8523 24.9742 24.0703 25.707 24.0703 27.2C24.0703 28.693 25.1586 30.1367 25.3063 30.3391C25.4594 30.5414 27.4445 33.6039 30.4906 34.9219C32.4156 35.7531 33.1703 35.8242 34.1328 35.682C34.718 35.5945 35.9266 34.9492 36.1781 34.2383C36.4297 33.5273 36.4297 32.9203 36.3531 32.7945C36.282 32.6578 36.0797 32.5813 35.7789 32.4336Z" fill="#FEFEFE"/>
</g>
<defs>
<clipPath id="clip0_256_97">
<rect width="24.5" height="28" fill="white" transform="translate(18 16)"/>
</clipPath>
</defs>
</svg>
