<svg width="439" height="363" viewBox="0 0 439 363" fill="none" xmlns="http://www.w3.org/2000/svg">
<path d="M438.185 0H190.879V234.124H438.185V0Z" fill="#FCC737"/>
<path opacity="0.7" d="M438.185 0H190.879V234.124H438.185V0Z" fill="white"/>
<path d="M438.185 0H190.879V11.9149H438.185V0Z" fill="#FCC737"/>
<path opacity="0.2" d="M438.184 11.9287H430.008V234.349H438.184V11.9287Z" fill="black"/>
<path opacity="0.6" d="M434.556 17.1943H433.81C432.657 17.1943 431.723 18.1288 431.723 19.2816V46.0933C431.723 47.2461 432.657 48.1806 433.81 48.1806H434.556C435.709 48.1806 436.643 47.2461 436.643 46.0933V19.2816C436.643 18.1288 435.709 17.1943 434.556 17.1943Z" fill="white"/>
<path opacity="0.2" d="M424.603 165.643H195.961C195.797 165.64 195.641 165.573 195.525 165.457C195.41 165.342 195.343 165.185 195.34 165.022C195.34 164.857 195.405 164.699 195.522 164.582C195.638 164.466 195.796 164.4 195.961 164.4H424.603C424.768 164.4 424.926 164.466 425.042 164.582C425.159 164.699 425.224 164.857 425.224 165.022C425.224 165.186 425.159 165.344 425.042 165.461C424.926 165.577 424.768 165.643 424.603 165.643Z" fill="black"/>
<path opacity="0.2" d="M424.603 112.216H195.961C195.797 112.213 195.641 112.146 195.525 112.031C195.41 111.915 195.343 111.759 195.34 111.595C195.34 111.43 195.405 111.272 195.522 111.156C195.638 111.039 195.796 110.974 195.961 110.974H424.603C424.768 110.974 424.926 111.039 425.042 111.156C425.159 111.272 425.224 111.43 425.224 111.595C425.224 111.76 425.159 111.918 425.042 112.034C424.926 112.151 424.768 112.216 424.603 112.216Z" fill="black"/>
<path d="M424.619 17.1855H196.027V52.1352H424.619V17.1855Z" fill="#FCC737"/>
<path d="M203.504 41V29.8H208.112C209.104 29.8 209.952 29.96 210.656 30.28C211.371 30.6 211.92 31.0587 212.304 31.656C212.688 32.2533 212.88 32.9627 212.88 33.784C212.88 34.6053 212.688 35.3147 212.304 35.912C211.92 36.5093 211.371 36.968 210.656 37.288C209.952 37.608 209.104 37.768 208.112 37.768H204.656L205.584 36.792V41H203.504ZM205.584 37.016L204.656 36.008H208.016C208.933 36.008 209.621 35.816 210.08 35.432C210.549 35.0373 210.784 34.488 210.784 33.784C210.784 33.0693 210.549 32.52 210.08 32.136C209.621 31.752 208.933 31.56 208.016 31.56H204.656L205.584 30.536V37.016ZM219.951 41V39.272L219.839 38.904V35.88C219.839 35.2933 219.663 34.84 219.311 34.52C218.959 34.1893 218.426 34.024 217.711 34.024C217.231 34.024 216.756 34.0987 216.287 34.248C215.828 34.3973 215.439 34.6053 215.119 34.872L214.335 33.416C214.794 33.064 215.338 32.8027 215.967 32.632C216.607 32.4507 217.268 32.36 217.951 32.36C219.188 32.36 220.143 32.6587 220.815 33.256C221.498 33.8427 221.839 34.7547 221.839 35.992V41H219.951ZM217.263 41.112C216.623 41.112 216.063 41.0053 215.583 40.792C215.103 40.568 214.73 40.264 214.463 39.88C214.207 39.4853 214.079 39.0427 214.079 38.552C214.079 38.072 214.191 37.64 214.415 37.256C214.65 36.872 215.028 36.568 215.551 36.344C216.074 36.12 216.767 36.008 217.631 36.008H220.111V37.336H217.775C217.092 37.336 216.634 37.448 216.399 37.672C216.164 37.8853 216.047 38.152 216.047 38.472C216.047 38.8347 216.191 39.1227 216.479 39.336C216.767 39.5493 217.167 39.656 217.679 39.656C218.17 39.656 218.607 39.544 218.991 39.32C219.386 39.096 219.668 38.7653 219.839 38.328L220.175 39.528C219.983 40.0293 219.636 40.4187 219.135 40.696C218.644 40.9733 218.02 41.112 217.263 41.112ZM226.038 39.096L226.086 36.584L230.55 32.456H232.95L229.158 36.264L228.102 37.144L226.038 39.096ZM224.406 41V29.128H226.406V41H224.406ZM230.854 41L227.734 37.144L228.998 35.544L233.286 41H230.854ZM238.25 41.112C237.301 41.112 236.469 40.9253 235.754 40.552C235.05 40.168 234.501 39.6453 234.106 38.984C233.722 38.3227 233.53 37.5707 233.53 36.728C233.53 35.8747 233.717 35.1227 234.09 34.472C234.474 33.8107 234.997 33.2933 235.658 32.92C236.33 32.5467 237.093 32.36 237.946 32.36C238.778 32.36 239.519 32.5413 240.17 32.904C240.821 33.2667 241.333 33.7787 241.706 34.44C242.079 35.1013 242.266 35.88 242.266 36.776C242.266 36.8613 242.261 36.9573 242.25 37.064C242.25 37.1707 242.245 37.272 242.234 37.368H235.114V36.04H241.178L240.394 36.456C240.405 35.9653 240.303 35.5333 240.09 35.16C239.877 34.7867 239.583 34.4933 239.21 34.28C238.847 34.0667 238.426 33.96 237.946 33.96C237.455 33.96 237.023 34.0667 236.65 34.28C236.287 34.4933 235.999 34.792 235.786 35.176C235.583 35.5493 235.482 35.992 235.482 36.504V36.824C235.482 37.336 235.599 37.7893 235.834 38.184C236.069 38.5787 236.399 38.8827 236.826 39.096C237.253 39.3093 237.743 39.416 238.298 39.416C238.778 39.416 239.21 39.3413 239.594 39.192C239.978 39.0427 240.319 38.808 240.618 38.488L241.69 39.72C241.306 40.168 240.821 40.5147 240.234 40.76C239.658 40.9947 238.997 41.112 238.25 41.112ZM247.403 41.112C246.464 41.112 245.739 40.872 245.227 40.392C244.715 39.9013 244.459 39.1813 244.459 38.232V30.568H246.459V38.184C246.459 38.5893 246.56 38.904 246.763 39.128C246.976 39.352 247.27 39.464 247.643 39.464C248.091 39.464 248.464 39.3467 248.763 39.112L249.323 40.536C249.088 40.728 248.8 40.872 248.459 40.968C248.118 41.064 247.766 41.112 247.403 41.112ZM243.051 34.12V32.52H248.747V34.12H243.051ZM257.438 38.36L257.326 35.896L263.198 29.8H265.534L260.654 34.984L259.502 36.248L257.438 38.36ZM255.582 41V29.8H257.662V41H255.582ZM263.39 41L259.102 35.896L260.478 34.376L265.822 41H263.39ZM270.687 41.112C269.738 41.112 268.906 40.9253 268.191 40.552C267.487 40.168 266.938 39.6453 266.543 38.984C266.159 38.3227 265.967 37.5707 265.967 36.728C265.967 35.8747 266.154 35.1227 266.527 34.472C266.911 33.8107 267.434 33.2933 268.095 32.92C268.767 32.5467 269.53 32.36 270.383 32.36C271.215 32.36 271.957 32.5413 272.607 32.904C273.258 33.2667 273.77 33.7787 274.143 34.44C274.517 35.1013 274.703 35.88 274.703 36.776C274.703 36.8613 274.698 36.9573 274.687 37.064C274.687 37.1707 274.682 37.272 274.671 37.368H267.551V36.04H273.615L272.831 36.456C272.842 35.9653 272.741 35.5333 272.527 35.16C272.314 34.7867 272.021 34.4933 271.647 34.28C271.285 34.0667 270.863 33.96 270.383 33.96C269.893 33.96 269.461 34.0667 269.087 34.28C268.725 34.4933 268.437 34.792 268.223 35.176C268.021 35.5493 267.919 35.992 267.919 36.504V36.824C267.919 37.336 268.037 37.7893 268.271 38.184C268.506 38.5787 268.837 38.8827 269.263 39.096C269.69 39.3093 270.181 39.416 270.735 39.416C271.215 39.416 271.647 39.3413 272.031 39.192C272.415 39.0427 272.757 38.808 273.055 38.488L274.127 39.72C273.743 40.168 273.258 40.5147 272.671 40.76C272.095 40.9947 271.434 41.112 270.687 41.112ZM276.625 41V29.128H278.625V41H276.625ZM286.514 41V39.272L286.402 38.904V35.88C286.402 35.2933 286.226 34.84 285.874 34.52C285.522 34.1893 284.988 34.024 284.274 34.024C283.794 34.024 283.319 34.0987 282.85 34.248C282.391 34.3973 282.002 34.6053 281.682 34.872L280.898 33.416C281.356 33.064 281.9 32.8027 282.53 32.632C283.17 32.4507 283.831 32.36 284.514 32.36C285.751 32.36 286.706 32.6587 287.378 33.256C288.06 33.8427 288.402 34.7547 288.402 35.992V41H286.514ZM283.826 41.112C283.186 41.112 282.626 41.0053 282.146 40.792C281.666 40.568 281.292 40.264 281.026 39.88C280.77 39.4853 280.642 39.0427 280.642 38.552C280.642 38.072 280.754 37.64 280.978 37.256C281.212 36.872 281.591 36.568 282.114 36.344C282.636 36.12 283.33 36.008 284.194 36.008H286.674V37.336H284.338C283.655 37.336 283.196 37.448 282.962 37.672C282.727 37.8853 282.61 38.152 282.61 38.472C282.61 38.8347 282.754 39.1227 283.042 39.336C283.33 39.5493 283.73 39.656 284.242 39.656C284.732 39.656 285.17 39.544 285.554 39.32C285.948 39.096 286.231 38.7653 286.402 38.328L286.738 39.528C286.546 40.0293 286.199 40.4187 285.698 40.696C285.207 40.9733 284.583 41.112 283.826 41.112ZM293.608 41.112C292.894 41.112 292.206 41.0213 291.544 40.84C290.894 40.648 290.376 40.4187 289.992 40.152L290.76 38.632C291.144 38.8773 291.603 39.08 292.136 39.24C292.67 39.4 293.203 39.48 293.736 39.48C294.366 39.48 294.819 39.3947 295.096 39.224C295.384 39.0533 295.528 38.824 295.528 38.536C295.528 38.3013 295.432 38.1253 295.24 38.008C295.048 37.88 294.798 37.784 294.488 37.72C294.179 37.656 293.832 37.5973 293.448 37.544C293.075 37.4907 292.696 37.4213 292.312 37.336C291.939 37.24 291.598 37.1067 291.288 36.936C290.979 36.7547 290.728 36.5147 290.536 36.216C290.344 35.9173 290.248 35.5227 290.248 35.032C290.248 34.488 290.403 34.0187 290.712 33.624C291.022 33.2187 291.454 32.9093 292.008 32.696C292.574 32.472 293.24 32.36 294.008 32.36C294.584 32.36 295.166 32.424 295.752 32.552C296.339 32.68 296.824 32.8613 297.208 33.096L296.44 34.616C296.035 34.3707 295.624 34.2053 295.208 34.12C294.803 34.024 294.398 33.976 293.992 33.976C293.384 33.976 292.931 34.0667 292.632 34.248C292.344 34.4293 292.2 34.6587 292.2 34.936C292.2 35.192 292.296 35.384 292.488 35.512C292.68 35.64 292.931 35.7413 293.24 35.816C293.55 35.8907 293.891 35.9547 294.264 36.008C294.648 36.0507 295.027 36.12 295.4 36.216C295.774 36.312 296.115 36.4453 296.424 36.616C296.744 36.776 297 37.0053 297.192 37.304C297.384 37.6027 297.48 37.992 297.48 38.472C297.48 39.0053 297.32 39.4693 297 39.864C296.691 40.2587 296.248 40.568 295.672 40.792C295.096 41.0053 294.408 41.112 293.608 41.112Z" fill="black"/>
<path opacity="0.6" d="M435.341 5.96007C435.341 6.55228 435.165 7.13119 434.836 7.6236C434.507 8.116 434.039 8.49977 433.492 8.7264C432.945 8.95303 432.343 9.01233 431.762 8.8968C431.181 8.78126 430.647 8.49609 430.229 8.07734C429.81 7.65858 429.525 7.12505 429.409 6.54422C429.294 5.96339 429.353 5.36136 429.58 4.81423C429.806 4.2671 430.19 3.79946 430.682 3.47044C431.175 3.14143 431.754 2.96582 432.346 2.96582C433.14 2.96582 433.902 3.28128 434.464 3.84282C435.025 4.40435 435.341 5.16594 435.341 5.96007Z" fill="white"/>
<path opacity="0.6" d="M424.778 5.96007C424.778 6.55228 424.603 7.13119 424.274 7.6236C423.945 8.116 423.477 8.49977 422.93 8.7264C422.383 8.95303 421.78 9.01233 421.2 8.8968C420.619 8.78126 420.085 8.49609 419.666 8.07734C419.247 7.65858 418.962 7.12505 418.847 6.54422C418.731 5.96339 418.79 5.36136 419.017 4.81423C419.244 4.2671 419.628 3.79946 420.12 3.47044C420.612 3.14143 421.191 2.96582 421.784 2.96582C422.578 2.96582 423.34 3.28128 423.901 3.84282C424.463 4.40435 424.778 5.16594 424.778 5.96007Z" fill="white"/>
<path opacity="0.6" d="M414.216 5.96007C414.216 6.55228 414.04 7.13119 413.711 7.6236C413.382 8.116 412.914 8.49977 412.367 8.7264C411.82 8.95303 411.218 9.01233 410.637 8.8968C410.056 8.78126 409.522 8.49609 409.104 8.07734C408.685 7.65858 408.4 7.12505 408.284 6.54422C408.169 5.96339 408.228 5.36136 408.455 4.81423C408.681 4.2671 409.065 3.79946 409.557 3.47044C410.05 3.14143 410.629 2.96582 411.221 2.96582C412.015 2.96582 412.777 3.28128 413.339 3.84282C413.9 4.40435 414.216 5.16594 414.216 5.96007Z" fill="white"/>
<path opacity="0.4" d="M205.815 75.5382C204.368 75.5382 202.952 75.109 201.749 74.3049C200.545 73.5008 199.607 72.3579 199.053 71.0207C198.499 69.6836 198.354 68.2122 198.637 66.7926C198.919 65.3731 199.616 64.0692 200.64 63.0457C201.663 62.0223 202.967 61.3253 204.387 61.043C205.807 60.7606 207.279 60.9055 208.616 61.4594C209.953 62.0133 211.096 62.9512 211.901 64.1547C212.705 65.3581 213.134 66.7729 213.134 68.2203C213.131 70.1601 212.359 72.0195 210.987 73.3912C209.615 74.7629 207.755 75.5349 205.815 75.5382Z" fill="black"/>
<path d="M206.712 65.4414V70.9951H205.469V66.4726H204.363V65.4414H206.712Z" fill="white"/>
<path opacity="0.4" d="M414.724 61.1289H220.018C219.236 61.1289 218.602 61.763 218.602 62.5453V63.4274C218.602 64.2096 219.236 64.8438 220.018 64.8438H414.724C415.506 64.8438 416.14 64.2096 416.14 63.4274V62.5453C416.14 61.763 415.506 61.1289 414.724 61.1289Z" fill="black"/>
<path opacity="0.4" d="M414.724 70.7812H220.018C219.236 70.7812 218.602 71.4154 218.602 72.1976V73.0798C218.602 73.862 219.236 74.4961 220.018 74.4961H414.724C415.506 74.4961 416.14 73.862 416.14 73.0798V72.1976C416.14 71.4154 415.506 70.7812 414.724 70.7812Z" fill="black"/>
<path opacity="0.4" d="M347.374 80.4219H220.018C219.236 80.4219 218.602 81.056 218.602 81.8382V82.7204C218.602 83.5026 219.236 84.1367 220.018 84.1367H347.374C348.156 84.1367 348.791 83.5026 348.791 82.7204V81.8382C348.791 81.056 348.156 80.4219 347.374 80.4219Z" fill="black"/>
<path opacity="0.2" d="M222.006 102.326C223.879 102.326 225.398 100.807 225.398 98.9338C225.398 97.0606 223.879 95.542 222.006 95.542C220.132 95.542 218.613 97.0606 218.613 98.9338C218.613 100.807 220.132 102.326 222.006 102.326Z" fill="black"/>
<path d="M224.342 98.9335C224.344 99.3989 224.208 99.8547 223.951 100.243C223.694 100.631 223.327 100.934 222.898 101.113C222.468 101.292 221.995 101.34 221.538 101.25C221.081 101.159 220.662 100.935 220.332 100.606C220.003 100.277 219.779 99.8576 219.689 99.4009C219.599 98.9443 219.646 98.4711 219.826 98.0415C220.005 97.612 220.308 97.2453 220.696 96.9883C221.084 96.7312 221.54 96.5952 222.005 96.5977C222.625 96.5977 223.219 96.8438 223.657 97.2818C224.095 97.7199 224.342 98.314 224.342 98.9335Z" fill="white"/>
<path opacity="0.4" d="M265.968 97.082H233.088C232.306 97.082 231.672 97.7162 231.672 98.4984V99.3805C231.672 100.163 232.306 100.797 233.088 100.797H265.968C266.75 100.797 267.385 100.163 267.385 99.3805V98.4984C267.385 97.7162 266.75 97.082 265.968 97.082Z" fill="black"/>
<path opacity="0.2" d="M294.324 98.8596C294.324 99.5305 294.125 100.186 293.752 100.744C293.379 101.302 292.849 101.737 292.23 101.993C291.61 102.25 290.928 102.317 290.27 102.186C289.612 102.055 289.007 101.732 288.533 101.258C288.058 100.784 287.735 100.179 287.604 99.5213C287.473 98.8634 287.541 98.1814 287.797 97.5616C288.054 96.9418 288.489 96.4121 289.047 96.0394C289.605 95.6667 290.26 95.4678 290.931 95.4678C291.831 95.4678 292.694 95.8251 293.33 96.4612C293.966 97.0973 294.324 97.96 294.324 98.8596Z" fill="black"/>
<path d="M293.283 98.8592C293.285 99.3242 293.15 99.7794 292.893 100.167C292.637 100.555 292.271 100.858 291.842 101.038C291.413 101.217 290.94 101.265 290.484 101.176C290.028 101.087 289.608 100.864 289.278 100.536C288.949 100.209 288.724 99.7902 288.632 99.3343C288.54 98.8785 288.586 98.4057 288.764 97.9759C288.941 97.5461 289.242 97.1786 289.628 96.9201C290.015 96.6615 290.469 96.5234 290.934 96.5234C291.555 96.5234 292.151 96.7691 292.591 97.2068C293.031 97.6445 293.28 98.2386 293.283 98.8592Z" fill="#FCC737"/>
<path opacity="0.4" d="M334.922 97.0078H302.03C301.248 97.0078 300.613 97.6419 300.613 98.4242V99.3063C300.613 100.089 301.248 100.723 302.03 100.723H334.922C335.704 100.723 336.339 100.089 336.339 99.3063V98.4242C336.339 97.6419 335.704 97.0078 334.922 97.0078Z" fill="black"/>
<path opacity="0.2" d="M363.269 98.7854C363.269 99.4562 363.07 100.112 362.697 100.67C362.325 101.228 361.795 101.662 361.175 101.919C360.555 102.176 359.873 102.243 359.215 102.112C358.557 101.981 357.952 101.658 357.478 101.184C357.004 100.709 356.68 100.105 356.55 99.4471C356.419 98.7891 356.486 98.1072 356.743 97.4874C356.999 96.8676 357.434 96.3379 357.992 95.9652C358.55 95.5925 359.206 95.3936 359.877 95.3936C360.776 95.3936 361.639 95.7509 362.275 96.387C362.912 97.0231 363.269 97.8858 363.269 98.7854Z" fill="black"/>
<path d="M362.224 98.7857C362.224 99.2501 362.087 99.7041 361.829 100.09C361.571 100.476 361.204 100.777 360.775 100.955C360.345 101.133 359.873 101.179 359.418 101.089C358.962 100.998 358.544 100.775 358.215 100.446C357.887 100.118 357.663 99.6993 357.572 99.2438C357.482 98.7883 357.528 98.3162 357.706 97.8871C357.884 97.458 358.185 97.0913 358.571 96.8332C358.957 96.5752 359.411 96.4375 359.876 96.4375C360.499 96.4375 361.096 96.6849 361.537 97.1253C361.977 97.5656 362.224 98.1629 362.224 98.7857Z" fill="white"/>
<path opacity="0.4" d="M403.851 96.9219H370.971C370.189 96.9219 369.555 97.556 369.555 98.3382V99.2204C369.555 100.003 370.189 100.637 370.971 100.637H403.851C404.633 100.637 405.268 100.003 405.268 99.2204V98.3382C405.268 97.556 404.633 96.9219 403.851 96.9219Z" fill="black"/>
<path opacity="0.4" d="M205.815 137.44C209.857 137.44 213.134 134.163 213.134 130.122C213.134 126.08 209.857 122.804 205.815 122.804C201.773 122.804 198.496 126.08 198.496 130.122C198.496 134.163 201.773 137.44 205.815 137.44Z" fill="black"/>
<path d="M207.928 131.898V132.941H203.741V132.096L205.878 130.071C206.375 129.599 206.462 129.313 206.462 129.052C206.462 128.792 206.164 128.357 205.567 128.357C205.346 128.349 205.125 128.396 204.926 128.494C204.727 128.591 204.554 128.736 204.424 128.916L203.492 128.307C203.746 127.968 204.08 127.697 204.463 127.517C204.847 127.337 205.269 127.254 205.692 127.276C206.934 127.276 207.754 127.909 207.754 128.916C207.747 129.26 207.659 129.598 207.497 129.903C207.335 130.207 207.104 130.469 206.822 130.668L205.58 131.91L207.928 131.898Z" fill="white"/>
<path opacity="0.4" d="M414.724 123.062H220.018C219.236 123.062 218.602 123.697 218.602 124.479V125.361C218.602 126.143 219.236 126.777 220.018 126.777H414.724C415.506 126.777 416.14 126.143 416.14 125.361V124.479C416.14 123.697 415.506 123.062 414.724 123.062Z" fill="black"/>
<path opacity="0.4" d="M257.023 132.703H220.018C219.236 132.703 218.602 133.337 218.602 134.119V135.002C218.602 135.784 219.236 136.418 220.018 136.418H257.023C257.806 136.418 258.44 135.784 258.44 135.002V134.119C258.44 133.337 257.806 132.703 257.023 132.703Z" fill="black"/>
<path opacity="0.2" d="M222.006 154.458C223.879 154.458 225.398 152.94 225.398 151.067C225.398 149.193 223.879 147.675 222.006 147.675C220.132 147.675 218.613 149.193 218.613 151.067C218.613 152.94 220.132 154.458 222.006 154.458Z" fill="black"/>
<path d="M222.005 153.414C223.302 153.414 224.353 152.363 224.353 151.066C224.353 149.769 223.302 148.718 222.005 148.718C220.708 148.718 219.656 149.769 219.656 151.066C219.656 152.363 220.708 153.414 222.005 153.414Z" fill="white"/>
<path opacity="0.4" d="M265.968 149.215H233.088C232.306 149.215 231.672 149.849 231.672 150.631V151.513C231.672 152.296 232.306 152.93 233.088 152.93H265.968C266.75 152.93 267.385 152.296 267.385 151.513V150.631C267.385 149.849 266.75 149.215 265.968 149.215Z" fill="black"/>
<path opacity="0.2" d="M290.931 154.384C292.805 154.384 294.324 152.866 294.324 150.992C294.324 149.119 292.805 147.601 290.931 147.601C289.058 147.601 287.539 149.119 287.539 150.992C287.539 152.866 289.058 154.384 290.931 154.384Z" fill="black"/>
<path d="M290.935 153.341C292.232 153.341 293.283 152.29 293.283 150.993C293.283 149.696 292.232 148.645 290.935 148.645C289.637 148.645 288.586 149.696 288.586 150.993C288.586 152.29 289.637 153.341 290.935 153.341Z" fill="white"/>
<path opacity="0.4" d="M334.922 149.129H302.03C301.248 149.129 300.613 149.763 300.613 150.545V151.427C300.613 152.21 301.248 152.844 302.03 152.844H334.922C335.704 152.844 336.339 152.21 336.339 151.427V150.545C336.339 149.763 335.704 149.129 334.922 149.129Z" fill="black"/>
<path opacity="0.2" d="M363.269 150.919C363.269 151.59 363.07 152.246 362.697 152.804C362.325 153.361 361.795 153.796 361.175 154.053C360.555 154.31 359.873 154.377 359.215 154.246C358.557 154.115 357.952 153.792 357.478 153.318C357.004 152.843 356.68 152.239 356.55 151.581C356.419 150.923 356.486 150.241 356.743 149.621C356.999 149.001 357.434 148.472 357.992 148.099C358.55 147.726 359.206 147.527 359.877 147.527C360.776 147.527 361.639 147.885 362.275 148.521C362.912 149.157 363.269 150.02 363.269 150.919Z" fill="black"/>
<path d="M362.224 150.919C362.224 151.383 362.087 151.837 361.829 152.223C361.571 152.609 361.204 152.91 360.775 153.088C360.345 153.266 359.873 153.312 359.418 153.222C358.962 153.131 358.544 152.907 358.215 152.579C357.887 152.251 357.663 151.832 357.572 151.377C357.482 150.921 357.528 150.449 357.706 150.02C357.884 149.591 358.185 149.224 358.571 148.966C358.957 148.708 359.411 148.57 359.876 148.57C360.499 148.57 361.096 148.818 361.537 149.258C361.977 149.698 362.224 150.296 362.224 150.919Z" fill="#FCC737"/>
<path opacity="0.4" d="M403.851 149.055H370.971C370.189 149.055 369.555 149.689 369.555 150.471V151.353C369.555 152.135 370.189 152.77 370.971 152.77H403.851C404.633 152.77 405.268 152.135 405.268 151.353V150.471C405.268 149.689 404.633 149.055 403.851 149.055Z" fill="black"/>
<path opacity="0.4" d="M205.815 191.187C204.368 191.187 202.952 190.757 201.749 189.953C200.545 189.149 199.607 188.006 199.053 186.669C198.499 185.332 198.354 183.861 198.637 182.441C198.919 181.021 199.616 179.718 200.64 178.694C201.663 177.671 202.967 176.974 204.387 176.691C205.807 176.409 207.279 176.554 208.616 177.108C209.953 177.662 211.096 178.6 211.901 179.803C212.705 181.007 213.134 182.421 213.134 183.869C213.134 185.81 212.363 187.671 210.99 189.043C209.618 190.416 207.756 191.187 205.815 191.187Z" fill="black"/>
<path d="M207.876 184.896C207.876 185.827 207.155 186.685 205.577 186.685C204.829 186.702 204.093 186.495 203.465 186.088L203.962 185.107C204.424 185.431 204.975 185.605 205.54 185.604C206.186 185.604 206.584 185.343 206.584 184.896C206.584 184.448 206.273 184.212 205.54 184.212H204.956V183.367L206.099 182.125H203.738V181.094H207.665V181.926L206.422 183.355C206.814 183.383 207.18 183.557 207.449 183.842C207.719 184.127 207.871 184.503 207.876 184.896Z" fill="white"/>
<path opacity="0.4" d="M414.724 176.761H220.018C219.236 176.761 218.602 177.395 218.602 178.177V179.059C218.602 179.841 219.236 180.476 220.018 180.476H414.724C415.506 180.476 416.14 179.841 416.14 179.059V178.177C416.14 177.395 415.506 176.761 414.724 176.761Z" fill="black"/>
<path opacity="0.4" d="M414.724 186.4H220.018C219.236 186.4 218.602 187.035 218.602 187.817V188.699C218.602 189.481 219.236 190.115 220.018 190.115H414.724C415.506 190.115 416.14 189.481 416.14 188.699V187.817C416.14 187.035 415.506 186.4 414.724 186.4Z" fill="black"/>
<path opacity="0.4" d="M317.551 196.054H220.018C219.236 196.054 218.602 196.688 218.602 197.47V198.352C218.602 199.134 219.236 199.769 220.018 199.769H317.551C318.334 199.769 318.968 199.134 318.968 198.352V197.47C318.968 196.688 318.334 196.054 317.551 196.054Z" fill="black"/>
<path opacity="0.4" d="M293.827 211.412H288.036C287.762 211.412 287.539 211.635 287.539 211.909V217.699C287.539 217.973 287.762 218.196 288.036 218.196H293.827C294.101 218.196 294.324 217.973 294.324 217.699V211.909C294.324 211.635 294.101 211.412 293.827 211.412Z" fill="black"/>
<path d="M293.516 217.389V212.233H288.359V217.389H293.516Z" fill="white"/>
<path opacity="0.4" d="M334.922 212.952H302.03C301.248 212.952 300.613 213.586 300.613 214.369V215.251C300.613 216.033 301.248 216.667 302.03 216.667H334.922C335.704 216.667 336.339 216.033 336.339 215.251V214.369C336.339 213.586 335.704 212.952 334.922 212.952Z" fill="black"/>
<path d="M290.661 216.294C290.622 216.295 290.583 216.287 290.546 216.272C290.51 216.257 290.477 216.235 290.45 216.207L289.207 215.039C289.149 214.979 289.117 214.899 289.117 214.815C289.117 214.732 289.149 214.652 289.207 214.592C289.236 214.562 289.271 214.538 289.309 214.521C289.348 214.505 289.389 214.497 289.431 214.497C289.473 214.497 289.514 214.505 289.552 214.521C289.591 214.538 289.626 214.562 289.654 214.592L290.711 215.548L292.513 213.411C292.565 213.347 292.641 213.307 292.724 213.298C292.807 213.29 292.889 213.315 292.954 213.368C293.018 213.421 293.059 213.497 293.067 213.58C293.075 213.662 293.05 213.745 292.997 213.809L290.922 216.182C290.867 216.243 290.792 216.283 290.711 216.294H290.661Z" fill="#FCC737"/>
<path opacity="0.4" d="M362.772 211.338H356.981C356.707 211.338 356.484 211.56 356.484 211.835V217.625C356.484 217.899 356.707 218.122 356.981 218.122H362.772C363.047 218.122 363.269 217.899 363.269 217.625V211.835C363.269 211.56 363.047 211.338 362.772 211.338Z" fill="black"/>
<path d="M362.449 217.315V212.159H357.292V217.315H362.449Z" fill="white"/>
<path opacity="0.4" d="M403.851 212.866H370.971C370.189 212.866 369.555 213.5 369.555 214.283V215.165C369.555 215.947 370.189 216.581 370.971 216.581H403.851C404.633 216.581 405.268 215.947 405.268 215.165V214.283C405.268 213.5 404.633 212.866 403.851 212.866Z" fill="black"/>
<path d="M359.6 216.22C359.522 216.216 359.448 216.185 359.389 216.133L358.146 214.953C358.11 214.927 358.08 214.894 358.058 214.855C358.035 214.817 358.021 214.774 358.017 214.73C358.013 214.686 358.018 214.641 358.032 214.599C358.047 214.557 358.07 214.519 358.1 214.486C358.131 214.454 358.168 214.429 358.209 214.412C358.25 214.395 358.295 214.387 358.339 214.389C358.383 214.391 358.427 214.402 358.467 214.422C358.506 214.443 358.541 214.471 358.569 214.506L359.613 215.462L361.427 213.325C361.451 213.289 361.483 213.258 361.52 213.235C361.557 213.211 361.598 213.196 361.642 213.19C361.685 213.183 361.729 213.186 361.771 213.199C361.813 213.211 361.852 213.231 361.886 213.26C361.919 213.288 361.946 213.323 361.965 213.362C361.984 213.401 361.995 213.444 361.996 213.488C361.997 213.532 361.989 213.575 361.973 213.616C361.956 213.656 361.931 213.693 361.899 213.723L359.886 216.108C359.826 216.169 359.747 216.209 359.662 216.22H359.6Z" fill="#FCC737"/>
<path opacity="0.4" d="M224.889 211.49H219.099C218.824 211.49 218.602 211.713 218.602 211.987V217.777C218.602 218.051 218.824 218.274 219.099 218.274H224.889C225.164 218.274 225.386 218.051 225.386 217.777V211.987C225.386 211.713 225.164 211.49 224.889 211.49Z" fill="black"/>
<path d="M224.578 217.464V212.308H219.421V217.464H224.578Z" fill="white"/>
<path opacity="0.4" d="M265.968 213.03H233.088C232.306 213.03 231.672 213.664 231.672 214.447V215.329C231.672 216.111 232.306 216.745 233.088 216.745H265.968C266.75 216.745 267.385 216.111 267.385 215.329V214.447C267.385 213.664 266.75 213.03 265.968 213.03Z" fill="black"/>
<path d="M411.317 41.7617C415.166 37.9141 415.166 31.6758 411.317 27.8282C407.469 23.9805 401.23 23.9805 397.382 27.8282C393.534 31.6758 393.534 37.914 397.382 41.7617C401.23 45.6093 407.469 45.6093 411.317 41.7617Z" fill="white"/>
<path opacity="0.2" d="M413.069 30.2174L404.371 34.8144V24.9619C406.162 24.9651 407.918 25.456 409.45 26.3819C410.983 27.3079 412.234 28.6339 413.069 30.2174Z" fill="black"/>
<path d="M385.846 338.07C385.846 338.07 391.214 312.687 381.434 298.945C371.655 285.204 390.269 298.784 392.419 311.656C392.419 311.656 395.625 288.646 386.131 272.469C376.638 256.293 394.395 269.562 395.911 286.248C395.911 286.248 398.819 265.723 394.457 254.181C390.095 242.638 397.675 250.068 400.596 257.299C403.516 264.53 399.688 282.434 399.688 282.434C399.688 282.434 407.293 249.323 414.5 251.957C421.708 254.591 403.727 276.283 401.242 287.565C401.242 287.565 409.729 272.382 416.153 275.55C422.577 278.719 406.212 280.284 398.657 302.884L396.035 313.494C396.035 313.494 403.851 298.511 408.958 303.244C414.065 307.978 393.811 316.128 389.076 338.84L385.846 338.07Z" fill="#263238"/>
<path d="M386.903 339.585C386.903 339.585 388.022 307.593 403.84 294.05C419.659 280.508 393.303 291.23 386.903 306.003C386.903 306.003 389.911 277.489 406.089 260.927C422.268 244.365 397.056 255.001 390.283 274.519C390.283 274.519 392.918 249.074 401.579 236.563C410.24 224.052 398.944 230.661 393.303 238.451C387.661 246.242 386.903 268.767 386.903 268.767C386.903 268.767 387.649 226.847 378.205 227.866C368.761 228.885 383.847 260.169 383.474 274.457C383.474 274.457 377.82 253.746 369.171 255.609C360.523 257.473 379.709 264.306 381.97 293.603V307.108C381.97 307.108 377.074 286.832 369.544 290.957C362.014 295.082 383.847 310.91 382.716 339.511L386.903 339.585Z" fill="#263238"/>
<path opacity="0.2" d="M386.903 339.585C386.903 339.585 388.022 307.593 403.84 294.05C419.659 280.508 393.303 291.23 386.903 306.003C386.903 306.003 389.911 277.489 406.089 260.927C422.268 244.365 397.056 255.001 390.283 274.519C390.283 274.519 392.918 249.074 401.579 236.563C410.24 224.052 398.944 230.661 393.303 238.451C387.661 246.242 386.903 268.767 386.903 268.767C386.903 268.767 387.649 226.847 378.205 227.866C368.761 228.885 383.847 260.169 383.474 274.457C383.474 274.457 377.82 253.746 369.171 255.609C360.523 257.473 379.709 264.306 381.97 293.603V307.108C381.97 307.108 377.074 286.832 369.544 290.957C362.014 295.082 383.847 310.91 382.716 339.511L386.903 339.585Z" fill="white"/>
<path d="M394.703 362.062H375.542C371.917 362.062 368.44 360.622 365.877 358.059C363.313 355.496 361.873 352.019 361.873 348.395V345.823H408.359V348.395C408.359 352.017 406.921 355.492 404.36 358.054C401.8 360.617 398.326 362.058 394.703 362.062Z" fill="#FCC737"/>
<path d="M361.033 350.979H409.222C412.111 350.979 414.453 348.638 414.453 345.749V341.674C414.453 338.785 412.111 336.443 409.222 336.443H361.033C358.144 336.443 355.802 338.785 355.802 341.674V345.749C355.802 348.638 358.144 350.979 361.033 350.979Z" fill="#FCC737"/>
<path opacity="0.2" d="M361.033 350.979H409.222C412.111 350.979 414.453 348.638 414.453 345.749V341.674C414.453 338.785 412.111 336.443 409.222 336.443H361.033C358.144 336.443 355.802 338.785 355.802 341.674V345.749C355.802 348.638 358.144 350.979 361.033 350.979Z" fill="white"/>
<path d="M126.533 187.347C126.359 187.706 126.284 188.104 126.316 188.502C126.347 188.899 126.483 189.282 126.711 189.609C126.938 189.937 127.249 190.198 127.611 190.365C127.973 190.533 128.373 190.602 128.77 190.564H187.62C188.598 190.517 189.542 190.188 190.338 189.618C191.134 189.047 191.748 188.258 192.106 187.347L204.532 151.44C204.656 151.106 204.719 150.753 204.718 150.397C204.717 150.09 204.651 149.787 204.525 149.508C204.399 149.228 204.216 148.978 203.988 148.773C203.76 148.569 203.491 148.414 203.2 148.319C202.908 148.224 202.6 148.191 202.295 148.222H143.482C142.504 148.269 141.56 148.598 140.764 149.169C139.968 149.74 139.355 150.529 138.996 151.44L126.533 187.347Z" fill="#263238"/>
<path d="M188.064 188.761C188.544 188.739 189.007 188.578 189.398 188.298C189.788 188.018 190.089 187.631 190.264 187.184L202.69 151.277C202.742 151.134 202.767 150.982 202.764 150.83C202.764 150.333 202.404 150.022 201.832 150.022H143.044C142.564 150.045 142.101 150.206 141.711 150.486C141.32 150.766 141.02 151.153 140.845 151.6L128.419 187.507C128.355 187.652 128.327 187.81 128.338 187.968C128.349 188.126 128.398 188.279 128.481 188.414C128.574 188.533 128.695 188.628 128.834 188.689C128.973 188.75 129.125 188.775 129.276 188.761H188.064Z" fill="#FCC737"/>
<path opacity="0.8" d="M188.064 188.761C188.544 188.739 189.007 188.578 189.398 188.298C189.788 188.018 190.089 187.631 190.264 187.184L202.69 151.277C202.742 151.134 202.767 150.982 202.764 150.83C202.764 150.333 202.404 150.022 201.832 150.022H143.044C142.564 150.045 142.101 150.206 141.711 150.486C141.32 150.766 141.02 151.153 140.845 151.6L128.419 187.507C128.355 187.652 128.327 187.81 128.338 187.968C128.349 188.126 128.398 188.279 128.481 188.414C128.574 188.533 128.695 188.628 128.834 188.689C128.973 188.75 129.125 188.775 129.276 188.761H188.064Z" fill="white"/>
<path d="M101.348 187.906V189.559L113.003 192.553H187.349C187.9 192.553 188.427 192.334 188.817 191.945C189.206 191.556 189.424 191.028 189.424 190.478V187.906H101.348Z" fill="#263238"/>
<path opacity="0.2" d="M163.553 187.906V189.559L175.221 192.553H113.003L101.348 189.559V187.906H163.553Z" fill="white"/>
<g opacity="0.2">
<path d="M198.988 158.465H139.504L141.815 151.979H201.299L198.988 158.465Z" fill="#FCC737"/>
</g>
<g opacity="0.1">
<path d="M196.008 166.813H136.524C136.35 166.813 136.263 166.676 136.325 166.49C136.359 166.402 136.416 166.326 136.49 166.269C136.565 166.212 136.654 166.177 136.747 166.167H196.244C196.405 166.167 196.492 166.316 196.43 166.49C196.4 166.58 196.344 166.659 196.269 166.717C196.193 166.774 196.102 166.808 196.008 166.813Z" fill="black"/>
</g>
<g opacity="0.1">
<path d="M192.754 175.917H133.27C133.096 175.917 133.009 175.767 133.071 175.594C133.106 175.504 133.165 175.427 133.242 175.369C133.319 175.312 133.41 175.278 133.506 175.271H192.99C193.164 175.271 193.251 175.407 193.189 175.594C193.154 175.683 193.095 175.76 193.018 175.818C192.941 175.875 192.849 175.909 192.754 175.917Z" fill="black"/>
</g>
<g opacity="0.1">
<path d="M189.515 185.023H130.031C129.857 185.023 129.77 184.874 129.833 184.7C129.862 184.608 129.918 184.527 129.993 184.468C130.068 184.408 130.159 184.372 130.255 184.364H189.739C189.913 184.364 190 184.513 189.938 184.7C189.905 184.788 189.848 184.865 189.774 184.922C189.699 184.98 189.609 185.014 189.515 185.023Z" fill="black"/>
</g>
<path d="M169.727 361.91H176.201L187.844 199.847H179.245L169.727 361.91Z" fill="#263238"/>
<path opacity="0.2" d="M169.715 361.907H176.201L187.273 207.896L187.845 200.105H179.246L178.786 207.896L169.715 361.907Z" fill="white"/>
<path opacity="0.2" d="M178.785 207.51H187.272L187.844 200.105H179.245L178.785 207.51Z" fill="black"/>
<path d="M122.169 361.91H128.644L129.7 199.847H121.113L122.169 361.91Z" fill="#263238"/>
<path opacity="0.3" d="M121.102 200.105L121.276 226.246L122.158 361.907H128.644L129.539 226.246L129.7 200.105H121.102Z" fill="white"/>
<path opacity="0.2" d="M121.102 200.105L121.276 226.544H129.539L129.7 200.105H121.102Z" fill="black"/>
<path d="M53.3789 361.91H59.853L71.4963 199.847H62.8974L53.3789 361.91Z" fill="#263238"/>
<path opacity="0.3" d="M53.3789 361.907H59.853L70.9371 207.896L71.4963 200.105H62.8974L62.4376 207.896L53.3789 361.907Z" fill="white"/>
<path opacity="0.2" d="M62.4375 207.51H70.937L71.4962 200.105H62.8973L62.4375 207.51Z" fill="black"/>
<path d="M243.846 361.91H250.32L240.802 199.847H232.203L243.846 361.91Z" fill="#263238"/>
<path opacity="0.3" d="M232.203 200.105L232.775 207.896L243.846 361.907H250.32L241.262 207.896L240.802 200.105H232.203Z" fill="white"/>
<path opacity="0.2" d="M240.802 200.105H232.203L232.775 207.51H241.262L240.802 200.105Z" fill="black"/>
<path d="M244.928 203.909L58.7588 203.909C58.4063 203.909 58.0573 203.84 57.7317 203.705C57.406 203.57 57.1102 203.372 56.8609 203.123C56.6117 202.874 56.414 202.578 56.2791 202.252C56.1442 201.927 56.0748 201.578 56.0748 201.225V195.796L247.637 195.796V201.225C247.637 201.58 247.566 201.931 247.43 202.258C247.294 202.585 247.094 202.882 246.842 203.132C246.59 203.381 246.291 203.579 245.963 203.712C245.634 203.845 245.282 203.912 244.928 203.909Z" fill="#FCC737"/>
<path opacity="0.2" d="M56.0886 199.847L247.613 199.847V195.784L56.0886 195.784V199.847Z" fill="black"/>
<path d="M52.0755 196.837H251.627C252.234 196.837 252.815 196.596 253.244 196.167C253.673 195.739 253.914 195.157 253.914 194.551C253.914 193.944 253.673 193.363 253.244 192.934C252.815 192.506 252.234 192.265 251.627 192.265H52.0755C51.4691 192.265 50.8875 192.506 50.4587 192.934C50.03 193.363 49.7891 193.944 49.7891 194.551C49.7891 195.157 50.03 195.739 50.4587 196.167C50.8875 196.596 51.4691 196.837 52.0755 196.837Z" fill="#FCC737"/>
<path d="M245.254 186.512C245.342 188.485 244.98 190.452 244.198 192.265H198.73V191.184H199.65V181.791H198.73V180.71H244.198C244.976 182.542 245.337 184.524 245.254 186.512Z" fill="#263238"/>
<path opacity="0.2" d="M245.254 186.512C245.342 188.485 244.98 190.452 244.198 192.265H198.73V191.184H199.65V181.791H198.73V180.71H244.198C244.976 182.542 245.337 184.524 245.254 186.512Z" fill="white"/>
<path opacity="0.2" d="M220.923 186.512C221.01 188.485 220.649 190.452 219.867 192.265H198.742V191.184H199.662V181.791H198.742V180.71H219.867C220.645 182.542 221.006 184.524 220.923 186.512Z" fill="black"/>
<path opacity="0.8" d="M218.689 186.511C218.761 188.113 218.468 189.711 217.832 191.183H199.652V181.79H217.832C218.463 183.281 218.756 184.894 218.689 186.511Z" fill="white"/>
<path opacity="0.6" d="M237.847 186.516C237.934 188.489 237.573 190.455 236.79 192.268H228.328C229.111 190.455 229.472 188.489 229.384 186.516C229.461 184.54 229.101 182.571 228.328 180.751H236.79C237.563 182.571 237.924 184.54 237.847 186.516Z" fill="white"/>
<path d="M249.305 174.994C249.392 176.967 249.031 178.934 248.249 180.747H202.781V179.666H203.701V170.31H202.781V169.229H248.249C249.019 171.051 249.379 173.019 249.305 174.994Z" fill="#FCC737"/>
<path opacity="0.2" d="M224.97 174.994C225.057 176.967 224.696 178.934 223.914 180.747H202.789V179.666H203.709V170.31H202.789V169.229H223.914C224.684 171.051 225.044 173.019 224.97 174.994Z" fill="black"/>
<path opacity="0.8" d="M222.736 174.994C222.808 176.596 222.515 178.193 221.879 179.665H203.699V170.31H221.879C222.504 171.789 222.797 173.388 222.736 174.994Z" fill="white"/>
<path opacity="0.2" d="M241.893 174.994C241.981 176.967 241.62 178.934 240.837 180.747H232.375C233.158 178.934 233.519 176.967 233.431 174.994C233.506 173.019 233.145 171.051 232.375 169.229H240.837C241.607 171.051 241.968 173.019 241.893 174.994Z" fill="black"/>
<path d="M96.7637 334.203L92.7624 352.715L83.2812 352.554L87.2452 334.203H96.7637Z" fill="#FEE486"/>
<path opacity="0.2" d="M96.7769 334.203L94.7887 343.36L85.3945 342.726L87.246 334.203H96.7769Z" fill="black"/>
<path d="M94.1935 352.245H94.3924C94.3924 352.245 94.6036 352.32 94.6285 352.344C94.6401 352.35 94.6528 352.353 94.6657 352.353C94.6786 352.353 94.6914 352.35 94.703 352.344C95.5099 352.604 96.3437 352.77 97.1882 352.841C97.8128 352.956 98.4575 352.827 98.99 352.481C99.165 352.332 99.2916 352.134 99.3536 351.913C99.4156 351.692 99.4101 351.457 99.338 351.239C99.3206 351.097 99.2683 350.961 99.186 350.844C99.1036 350.727 98.9936 350.632 98.8658 350.568C97.958 350.418 97.0264 350.589 96.2314 351.052C96.794 350.469 97.1253 349.7 97.1634 348.89C97.1285 348.7 97.0317 348.526 96.888 348.395C96.7442 348.265 96.5615 348.186 96.3681 348.17C96.1844 348.137 95.9959 348.142 95.8143 348.185C95.6326 348.228 95.4617 348.307 95.3119 348.418C94.3178 349.276 94.1562 351.959 94.1562 352.146L94.1935 352.245ZM95.2125 351.698L95.0261 351.81C94.9664 350.784 95.2458 349.767 95.8214 348.915C95.8855 348.854 95.9617 348.807 96.0452 348.777C96.1287 348.747 96.2175 348.735 96.306 348.741H96.4178C96.7285 348.741 96.803 348.953 96.803 349.089C96.5997 350.12 96.0358 351.045 95.2125 351.698ZM95.3492 352.17C96.4924 351.537 98.1202 350.853 98.7291 351.127C98.7904 351.158 98.8431 351.203 98.8821 351.26C98.9212 351.316 98.9455 351.382 98.9528 351.45C98.9872 351.587 98.9859 351.732 98.9489 351.869C98.9119 352.006 98.8405 352.131 98.7415 352.233C98.319 352.63 97.0764 352.605 95.3492 352.17Z" fill="#FCC737"/>
<path d="M93.9671 351.087L83.3427 350.428C83.2545 350.418 83.1651 350.425 83.0797 350.45C82.9943 350.474 82.9146 350.515 82.8453 350.571C82.7759 350.626 82.7183 350.695 82.6757 350.773C82.6331 350.851 82.6064 350.936 82.5971 351.025L81.5533 359.411C81.5292 359.851 81.6782 360.284 81.9684 360.616C82.2586 360.947 82.667 361.153 83.1066 361.188C86.8344 361.349 88.599 361.25 93.2712 361.498C97.4225 361.94 101.6 362.089 105.772 361.946C109.736 361.561 109.251 357.647 107.536 357.461C103.486 357.001 98.1174 354.019 95.57 351.758C95.1244 351.363 94.5608 351.128 93.9671 351.087Z" fill="#263238"/>
<path d="M152.272 334.203L148.271 352.715L138.777 352.554L142.754 334.203H152.272Z" fill="#FEE486"/>
<path opacity="0.2" d="M152.273 334.203L150.285 343.36L140.891 342.726L142.742 334.203H152.273Z" fill="black"/>
<path d="M149.685 352.244H149.884C149.884 352.244 150.095 352.319 150.132 352.344C150.144 352.349 150.157 352.352 150.17 352.352C150.183 352.352 150.195 352.349 150.207 352.344C151.014 352.602 151.848 352.768 152.692 352.841C153.321 352.958 153.971 352.829 154.506 352.48C154.679 352.33 154.803 352.131 154.863 351.91C154.923 351.689 154.915 351.455 154.842 351.238C154.828 351.095 154.777 350.958 154.694 350.84C154.611 350.723 154.5 350.628 154.37 350.567C153.462 350.417 152.53 350.588 151.735 351.052C152.296 350.465 152.631 349.699 152.68 348.89C152.64 348.699 152.541 348.525 152.395 348.396C152.25 348.266 152.066 348.186 151.872 348.169C151.688 348.137 151.5 348.142 151.318 348.185C151.137 348.228 150.966 348.307 150.816 348.418C149.822 349.275 149.66 351.958 149.66 352.145L149.685 352.244ZM150.704 351.698L150.518 351.809C150.464 350.784 150.743 349.769 151.313 348.915C151.377 348.854 151.454 348.807 151.537 348.777C151.62 348.747 151.709 348.735 151.797 348.741H151.909C152.22 348.741 152.294 348.952 152.307 349.088C152.092 350.118 151.525 351.041 150.704 351.698ZM150.841 352.17C151.984 351.536 153.612 350.853 154.221 351.126C154.282 351.157 154.335 351.203 154.374 351.259C154.413 351.315 154.437 351.381 154.444 351.449C154.48 351.586 154.481 351.729 154.446 351.866C154.411 352.003 154.342 352.129 154.245 352.232C153.761 352.629 152.518 352.605 150.841 352.17Z" fill="#FCC737"/>
<path d="M149.463 351.087L138.839 350.428C138.751 350.418 138.661 350.425 138.576 350.45C138.49 350.474 138.411 350.515 138.341 350.571C138.272 350.626 138.214 350.695 138.172 350.773C138.129 350.851 138.102 350.936 138.093 351.025L137.049 359.411C137.025 359.851 137.174 360.284 137.464 360.616C137.755 360.947 138.163 361.153 138.603 361.188C142.331 361.349 144.095 361.25 148.767 361.498C152.915 361.927 157.088 362.064 161.256 361.908C165.22 361.523 164.735 357.61 163.033 357.423C158.969 356.964 153.601 353.982 151.066 351.721C150.616 351.34 150.052 351.117 149.463 351.087Z" fill="#263238"/>
<path d="M113.772 298.967C110.161 312.892 105.543 326.537 99.9544 339.793L82.6323 338.476C82.6323 338.476 89.7401 310.72 92.3123 285.3C93.9028 269.608 93.7661 256.625 89.1685 255.618C86.2732 254.972 79.5133 254.997 70.8398 255.196V222.893C95.1703 227.862 119.376 237.305 121.216 244.859C123.788 255.506 119.29 278.019 113.772 298.967Z" fill="#FCC737"/>
<path opacity="0.4" d="M113.772 298.967C110.161 312.892 105.543 326.537 99.9544 339.793L82.6323 338.476C82.6323 338.476 89.7401 310.72 92.3123 285.3C93.9028 269.608 93.7661 256.625 89.1685 255.618C86.2732 254.972 79.5133 254.997 70.8398 255.196V222.893C95.1703 227.862 119.376 237.305 121.216 244.859C123.788 255.506 119.29 278.019 113.772 298.967Z" fill="white"/>
<path opacity="0.2" d="M113.772 298.967C107.311 294.867 99.7431 290.058 92.3123 285.3C93.9028 269.608 93.7661 256.625 89.1685 255.618C86.2732 254.972 79.5133 254.997 70.8398 255.196V222.893C95.1703 227.862 119.376 237.305 121.216 244.859C123.788 255.506 119.29 278.019 113.772 298.967Z" fill="black"/>
<path d="M104.306 219.728L105.834 207.466L56.2538 199.303C56.2538 199.303 40.0377 231.494 47.978 247.174C55.2473 261.611 132.737 253.013 144.666 255.61C156.595 258.206 138.08 338.468 138.08 338.468L155.477 339.797C155.477 339.797 182.243 267.587 176.738 244.875C174.315 234.973 133.458 221.853 104.306 219.728Z" fill="#FCC737"/>
<path opacity="0.6" d="M104.306 219.728L105.834 207.466L56.2538 199.303C56.2538 199.303 40.0377 231.494 47.978 247.174C55.2473 261.611 132.737 253.013 144.666 255.61C156.595 258.206 138.08 338.468 138.08 338.468L155.477 339.797C155.477 339.797 182.243 267.587 176.738 244.875C174.315 234.973 133.458 221.853 104.306 219.728Z" fill="white"/>
<path d="M131.584 119.972C131.161 120.705 131.211 121.538 131.696 121.811C132.18 122.084 132.938 121.712 133.323 120.966C133.709 120.221 133.696 119.413 133.224 119.127C132.752 118.842 132.044 119.264 131.584 119.972Z" fill="#263238"/>
<path d="M130.799 116.01C130.697 115.96 130.611 115.882 130.551 115.786C130.503 115.663 130.504 115.528 130.552 115.406C130.601 115.284 130.693 115.184 130.812 115.127C131.534 114.798 132.326 114.646 133.119 114.685C133.913 114.724 134.685 114.952 135.372 115.351C135.481 115.42 135.558 115.529 135.588 115.654C135.618 115.779 135.599 115.911 135.534 116.022C135.458 116.131 135.343 116.206 135.213 116.231C135.083 116.257 134.949 116.231 134.838 116.159C134.293 115.853 133.683 115.681 133.059 115.657C132.434 115.633 131.813 115.758 131.247 116.022C131.176 116.055 131.099 116.071 131.021 116.069C130.944 116.067 130.868 116.046 130.799 116.01Z" fill="#263238"/>
<path d="M132.279 119.024C131.871 121.786 131.841 124.591 132.192 127.361C131.479 127.428 130.761 127.341 130.085 127.105C129.41 126.869 128.793 126.491 128.277 125.994L132.279 119.024Z" fill="#DE5753"/>
<path d="M127.829 129.415C127.531 129.776 127.233 130.124 126.91 130.447C125.098 132.348 122.748 133.648 120.175 134.174C119.524 134.31 118.863 134.397 118.199 134.435C116.455 134.551 114.706 134.277 113.081 133.632C111.456 132.987 109.995 131.988 108.805 130.708C107.737 129.54 106.913 128.172 106.382 126.682C104.07 120.47 106.382 115.5 109.749 106.915C110.492 104.886 111.742 103.08 113.38 101.671C115.018 100.261 116.99 99.2944 119.108 98.8622C121.225 98.43 123.418 98.547 125.478 99.2019C127.537 99.8569 129.395 101.028 130.874 102.604C137.609 109.636 133.11 122.669 127.829 129.415Z" fill="#E4897B"/>
<path opacity="0.2" d="M120.175 134.146C119.523 134.281 118.863 134.368 118.199 134.406C116.454 134.523 114.706 134.249 113.081 133.604C111.456 132.959 109.995 131.96 108.805 130.679C109.641 129.839 110.58 129.108 111.601 128.505C114.938 129.529 117.913 131.486 120.175 134.146Z" fill="black"/>
<path d="M92.1797 134.467C93.0247 140.555 106.321 142.829 106.321 142.829C106.321 142.829 112.882 145.81 113.155 143.214C110.434 140.07 110.136 137.325 111.08 134.927C111.703 133.473 112.612 132.159 113.752 131.063C114.365 130.432 115.012 129.834 115.69 129.274L111.627 112.625C108.707 118.949 98.7159 133.572 92.1797 134.467Z" fill="#E4897B"/>
<path d="M130.113 97.8312C130.113 97.8312 132.959 97.4708 135.084 102.801C136.923 107.261 132.598 108.23 132.785 112.976C132.971 117.722 128.647 120.344 128.647 120.344C128.647 120.344 124.994 123.487 121.899 121.785C121.899 121.785 117.848 123.773 116.78 127.24C115.711 130.706 109.436 124.444 103.782 125.401C103.782 125.401 99.9672 121.823 100.241 113.15C100.459 109.384 101.382 105.692 102.962 102.267C103.712 100.453 104.816 98.8077 106.209 97.4255C107.603 96.0432 109.257 94.9521 111.076 94.2157C117.588 91.3084 128.908 93.4951 130.113 97.8312Z" fill="#263238"/>
<path d="M121.171 119.203C120.979 120.062 120.979 120.954 121.173 121.813C121.366 122.672 121.748 123.478 122.289 124.172C123.669 125.676 125.881 123.762 126.788 121.128C127.558 118.78 127.831 115.103 125.806 114.693C123.781 114.283 121.606 116.668 121.171 119.203Z" fill="#E4897B"/>
<path d="M111.625 136.693C107.964 133.458 103.446 131.353 98.6146 130.63C96.5036 130.37 94.3665 130.826 92.5459 131.926C90.7253 133.025 89.3266 134.704 88.5742 136.693L110.867 141.203L111.625 136.693Z" fill="#FCC737"/>
<path d="M107.836 183.731L116.919 185.086C118.986 184.441 121.107 183.988 123.257 183.731C125.593 183.534 127.942 183.534 130.278 183.731C130.278 183.731 134.353 185.272 134.353 189.248C134.353 189.248 124.76 191.82 121.082 190.279L107.836 189.248V183.731Z" fill="#E4897B"/>
<path opacity="0.2" d="M107.836 183.731L116.919 185.086C118.986 184.441 121.107 183.988 123.257 183.731C125.593 183.534 127.942 183.534 130.278 183.731C130.278 183.731 134.353 185.272 134.353 189.248C134.353 189.248 124.76 191.82 121.082 190.279L107.836 189.248V183.731Z" fill="black"/>
<path d="M122.598 139.553C120.751 144.722 119.094 149.692 117.628 154.463C116.683 157.42 115.826 160.315 115.043 163.16C114.372 165.508 113.801 167.782 113.192 169.993C112.918 171.049 112.645 172.105 112.384 173.149C110.955 178.864 109.799 184.095 108.892 188.692C107.381 195.928 106.261 203.239 105.537 210.596L54.5898 204.222C56.3544 195.463 57.7337 187.822 59.6597 179.572C60.716 175.05 61.9337 170.353 63.487 165.197C64.5805 161.47 65.848 157.556 67.364 153.282C72.4711 138.609 77.1931 134.546 77.1931 134.546C96.7519 131.329 122.598 139.553 122.598 139.553Z" fill="#FCC737"/>
<path d="M139.547 184.675L148.63 186.042C150.696 185.39 152.817 184.933 154.968 184.675C157.304 184.485 159.652 184.485 161.989 184.675C161.989 184.675 166.102 186.216 166.102 190.154C166.102 190.154 156.509 192.726 152.818 191.186L139.547 190.154V184.675Z" fill="#E4897B"/>
<path d="M80.793 339.285L101.42 340.652L104.452 331.743L81.7249 330.675L80.793 339.285Z" fill="#FCC737"/>
<path opacity="0.2" d="M80.793 339.285L101.42 340.652L104.452 331.743L81.7249 330.675L80.793 339.285Z" fill="white"/>
<path d="M136.293 339.285L156.92 340.652L159.952 331.743L137.225 330.675L136.293 339.285Z" fill="#FCC737"/>
<path opacity="0.2" d="M136.293 339.285L156.92 340.652L159.952 331.743L137.225 330.675L136.293 339.285Z" fill="white"/>
<path d="M54.4297 204.879L77.4057 207.898L78.1513 204.506L55.138 201.164L54.4297 204.879Z" fill="black"/>
<path d="M80.067 204.532L79.7812 207.899L101.018 210.819V207.489L80.067 204.532Z" fill="black"/>
<path d="M102.328 207.674V210.817L105.41 211.227V208.183L102.328 207.674Z" fill="black"/>
<path opacity="0.2" d="M117.616 154.461C116.672 157.418 115.814 160.313 115.032 163.158C114.361 165.507 113.789 167.78 113.18 169.992C111.589 161.295 114.423 150.896 114.423 150.896L117.616 154.461Z" fill="black"/>
<path d="M121.055 142.483C125.206 143.316 127.355 172.14 128.275 175.955C129.082 179.284 148.629 186.043 148.629 186.043V190.727C148.629 190.727 127.007 189.249 121.925 187.161C116.843 185.074 113.773 156.61 113.773 156.61L121.055 142.483Z" fill="#E4897B"/>
<g opacity="0.2">
<path d="M122.602 139.554C120.755 144.723 119.098 149.693 117.632 154.464C116.687 157.421 115.83 160.315 115.047 163.161C114.376 165.509 113.804 167.783 113.196 169.994C112.922 171.05 112.649 172.106 112.388 173.15C110.959 178.865 109.803 184.096 108.896 188.693C107.385 195.928 106.265 203.24 105.541 210.597L54.5938 204.223C56.3583 195.464 57.7376 187.823 59.6636 179.573C60.7199 175.051 61.9376 170.354 63.4909 165.198C64.5844 161.471 65.8519 157.557 67.3679 153.283C72.475 138.61 77.197 134.547 77.197 134.547C96.7558 131.33 122.602 139.554 122.602 139.554Z" fill="white"/>
</g>
<path d="M122.598 139.55C126.4 140.792 128.277 165.641 128.277 165.641L114.471 167.467L111.613 157.254C111.613 157.254 112.756 152.434 114.397 147.377C116.783 140.047 122.598 139.55 122.598 139.55Z" fill="#FCC737"/>
<path d="M33.5371 357.674C33.5371 356.809 33.2802 355.963 32.7991 355.243C32.3179 354.524 31.634 353.963 30.8341 353.632C30.0341 353.302 29.154 353.216 28.3052 353.386C27.4564 353.555 26.677 353.973 26.0658 354.586C25.4546 355.199 25.039 355.979 24.8716 356.829C24.7042 357.678 24.7926 358.557 25.1256 359.356C25.4586 360.155 26.0211 360.837 26.7421 361.316C27.463 361.796 28.3099 362.05 29.1755 362.047C29.7493 362.047 30.3175 361.934 30.8475 361.714C31.3775 361.494 31.8588 361.172 32.264 360.766C32.6692 360.36 32.9902 359.877 33.2087 359.347C33.4271 358.816 33.5387 358.248 33.5371 357.674Z" fill="#263238"/>
<path opacity="0.2" d="M33.5371 357.674C33.5371 356.809 33.2802 355.963 32.7991 355.243C32.3179 354.524 31.634 353.963 30.8341 353.632C30.0341 353.302 29.154 353.216 28.3052 353.386C27.4564 353.555 26.677 353.973 26.0658 354.586C25.4546 355.199 25.039 355.979 24.8716 356.829C24.7042 357.678 24.7926 358.557 25.1256 359.356C25.4586 360.155 26.0211 360.837 26.7421 361.316C27.463 361.796 28.3099 362.05 29.1755 362.047C29.7493 362.047 30.3175 361.934 30.8475 361.714C31.3775 361.494 31.8588 361.172 32.264 360.766C32.6692 360.36 32.9902 359.877 33.2087 359.347C33.4271 358.816 33.5387 358.248 33.5371 357.674Z" fill="white"/>
<path d="M138.678 357.67C138.678 356.805 138.421 355.96 137.941 355.241C137.46 354.521 136.777 353.961 135.978 353.63C135.178 353.299 134.299 353.212 133.45 353.381C132.602 353.55 131.823 353.966 131.211 354.578C130.599 355.189 130.183 355.969 130.014 356.817C129.845 357.665 129.932 358.545 130.263 359.344C130.594 360.143 131.154 360.826 131.874 361.307C132.593 361.787 133.439 362.044 134.304 362.044C134.879 362.045 135.448 361.933 135.98 361.714C136.511 361.495 136.994 361.173 137.4 360.766C137.807 360.36 138.129 359.877 138.348 359.346C138.567 358.814 138.679 358.245 138.678 357.67Z" fill="#263238"/>
<path opacity="0.2" d="M138.678 357.67C138.678 356.805 138.421 355.96 137.941 355.241C137.46 354.521 136.777 353.961 135.978 353.63C135.178 353.299 134.299 353.212 133.45 353.381C132.602 353.55 131.823 353.966 131.211 354.578C130.599 355.189 130.183 355.969 130.014 356.817C129.845 357.665 129.932 358.545 130.263 359.344C130.594 360.143 131.154 360.826 131.874 361.307C132.593 361.787 133.439 362.044 134.304 362.044C134.879 362.045 135.448 361.933 135.98 361.714C136.511 361.495 136.994 361.173 137.4 360.766C137.807 360.36 138.129 359.877 138.348 359.346C138.567 358.814 138.679 358.245 138.678 357.67Z" fill="white"/>
<path opacity="0.2" d="M31.3506 357.673C31.3506 357.24 31.222 356.817 30.9811 356.457C30.7403 356.097 30.398 355.817 29.9976 355.652C29.5973 355.486 29.1569 355.444 28.7323 355.529C28.3077 355.615 27.9181 355.824 27.6127 356.131C27.3074 356.438 27.1001 356.829 27.0171 357.254C26.9341 357.679 26.9792 358.119 27.1466 358.518C27.3141 358.918 27.5963 359.258 27.9576 359.497C28.3189 359.736 28.7429 359.862 29.176 359.86C29.4626 359.86 29.7464 359.803 30.0111 359.693C30.2757 359.583 30.516 359.422 30.7181 359.218C30.9202 359.015 31.0801 358.774 31.1886 358.509C31.2972 358.244 31.3522 357.96 31.3506 357.673Z" fill="white"/>
<path opacity="0.2" d="M134.3 359.86C135.508 359.86 136.487 358.881 136.487 357.673C136.487 356.465 135.508 355.486 134.3 355.486C133.092 355.486 132.113 356.465 132.113 357.673C132.113 358.881 133.092 359.86 134.3 359.86Z" fill="white"/>
<path d="M85.3548 338.516V291.54H78.1228V338.516C49.9899 339.237 32.8915 349.077 29.4619 351.227C29.2664 351.352 29.1059 351.525 28.9951 351.729C28.8843 351.933 28.8269 352.162 28.8281 352.394V356.296C28.8281 356.661 28.9735 357.012 29.2321 357.271C29.4908 357.529 29.8416 357.675 30.2075 357.675C30.4583 357.683 30.7066 357.622 30.9255 357.5C31.1445 357.377 31.3258 357.197 31.4501 356.979L33.1152 354.047C47.6914 349.401 62.8639 346.89 78.1601 346.592V354.32C78.1633 354.792 78.3533 355.244 78.6885 355.577C79.0238 355.91 79.477 356.097 79.9494 356.097H83.6027C84.0752 356.097 84.5284 355.91 84.8636 355.577C85.1988 355.244 85.3888 354.792 85.3921 354.32V346.592C100.688 346.89 115.861 349.401 130.437 354.047L132.102 356.979C132.226 357.197 132.408 357.377 132.627 357.5C132.846 357.622 133.094 357.683 133.345 357.675C133.711 357.675 134.061 357.529 134.32 357.271C134.579 357.012 134.724 356.661 134.724 356.296V352.394C134.725 352.162 134.668 351.933 134.557 351.729C134.446 351.525 134.286 351.352 134.09 351.227C130.623 349.077 113.488 339.237 85.3548 338.516Z" fill="#263238"/>
<path opacity="0.2" d="M85.3548 338.516V291.54H78.1228V338.516C49.9899 339.237 32.8915 349.077 29.4619 351.227C29.2664 351.352 29.1059 351.525 28.9951 351.729C28.8843 351.933 28.8269 352.162 28.8281 352.394V356.296C28.8281 356.661 28.9735 357.012 29.2321 357.271C29.4908 357.529 29.8416 357.675 30.2075 357.675C30.4583 357.683 30.7066 357.622 30.9255 357.5C31.1445 357.377 31.3258 357.197 31.4501 356.979L33.1152 354.047C47.6914 349.401 62.8639 346.89 78.1601 346.592V354.32C78.1633 354.792 78.3533 355.244 78.6885 355.577C79.0238 355.91 79.477 356.097 79.9494 356.097H83.6027C84.0752 356.097 84.5284 355.91 84.8636 355.577C85.1988 355.244 85.3888 354.792 85.3921 354.32V346.592C100.688 346.89 115.861 349.401 130.437 354.047L132.102 356.979C132.226 357.197 132.408 357.377 132.627 357.5C132.846 357.622 133.094 357.683 133.345 357.675C133.711 357.675 134.061 357.529 134.32 357.271C134.579 357.012 134.724 356.661 134.724 356.296V352.394C134.725 352.162 134.668 351.933 134.557 351.729C134.446 351.525 134.286 351.352 134.09 351.227C130.623 349.077 113.488 339.237 85.3548 338.516Z" fill="black"/>
<path d="M83.1572 353.313H80.324C79.7956 353.313 79.3672 353.742 79.3672 354.27V361.091C79.3672 361.619 79.7956 362.048 80.324 362.048H83.1572C83.6856 362.048 84.114 361.619 84.114 361.091V354.27C84.114 353.742 83.6856 353.313 83.1572 353.313Z" fill="#263238"/>
<path opacity="0.2" d="M83.1572 353.313H80.324C79.7956 353.313 79.3672 353.742 79.3672 354.27V361.091C79.3672 361.619 79.7956 362.048 80.324 362.048H83.1572C83.6856 362.048 84.114 361.619 84.114 361.091V354.27C84.114 353.742 83.6856 353.313 83.1572 353.313Z" fill="white"/>
<path d="M34.3845 245.293H129.109C131.716 245.293 134.216 246.328 136.059 248.171C137.903 250.014 138.938 252.514 138.938 255.121V261.059H24.543V255.096C24.5496 252.491 25.5897 249.996 27.435 248.158C29.2803 246.32 31.7798 245.29 34.3845 245.293Z" fill="#FCC737"/>
<path d="M65.3359 206.257H128.312C129.084 206.233 129.851 206.388 130.552 206.712C131.253 207.035 131.869 207.517 132.352 208.12C132.834 208.723 133.169 209.43 133.331 210.185C133.492 210.94 133.476 211.722 133.282 212.47L121.925 261.074H119.328L128.921 218.433C129.088 217.692 129.085 216.922 128.912 216.182C128.739 215.442 128.401 214.751 127.922 214.161C127.444 213.57 126.838 213.095 126.15 212.772C125.462 212.449 124.71 212.286 123.95 212.296H66.6283L65.3359 206.257Z" fill="#263238"/>
<path d="M89.1696 262.778V303.878C89.1664 304.51 88.9139 305.115 88.4672 305.561C88.0205 306.008 87.4156 306.26 86.7838 306.263H76.7062C76.3924 306.265 76.0814 306.205 75.7912 306.085C75.501 305.966 75.2373 305.79 75.0155 305.568C74.7936 305.347 74.6179 305.083 74.4986 304.793C74.3793 304.503 74.3187 304.192 74.3203 303.878V262.778H89.1696Z" fill="#263238"/>
<path opacity="0.2" d="M89.182 262.778H74.3203V279.849H89.182V262.778Z" fill="black"/>
<path d="M142.057 258.536V263.505C142.057 264.164 141.796 264.796 141.329 265.262C140.863 265.728 140.231 265.99 139.572 265.99H24.0087C23.3495 265.99 22.7174 265.728 22.2514 265.262C21.7853 264.796 21.5234 264.164 21.5234 263.505V258.536C21.5234 257.877 21.7853 257.245 22.2514 256.779C22.7174 256.313 23.3495 256.051 24.0087 256.051H139.572C140.231 256.051 140.863 256.313 141.329 256.779C141.796 257.245 142.057 257.877 142.057 258.536Z" fill="#263238"/>
<path d="M88.872 261.073H21.4227C21.4227 261.073 0 225.44 0 166.561V144.93C0 140.646 1.70194 136.538 4.73141 133.509C7.76088 130.48 11.8697 128.779 16.154 128.779H44.7342C48.9374 128.757 52.9816 130.383 56.001 133.307C59.0203 136.23 60.7746 140.22 60.8883 144.421C61.6214 174.811 66.0948 240.51 88.872 261.073Z" fill="#263238"/>
<path opacity="0.2" d="M74.033 261.076H24.4774C23.5376 261.078 22.6152 260.822 21.811 260.336C21.0069 259.849 20.3517 259.151 19.917 258.318C15.046 248.913 0.0351562 215.889 0.0351562 166.565V144.934C0.0351562 140.65 1.73709 136.542 4.76656 133.513C7.79603 130.484 11.9049 128.782 16.1892 128.782H40.9048C45.1023 128.78 49.1358 130.412 52.1511 133.331C55.1663 136.251 56.9265 140.23 57.0589 144.424C57.8044 171.522 61.4453 226.847 78.4568 253.001C79.0028 253.786 79.319 254.708 79.3699 255.663C79.4207 256.618 79.2043 257.569 78.7448 258.407C78.2852 259.246 77.6009 259.941 76.7685 260.412C75.9362 260.883 74.9889 261.114 74.033 261.076Z" fill="white"/>
<path opacity="0.2" d="M142.054 258.54V263.51C142.054 264.169 141.792 264.801 141.326 265.267C140.86 265.733 140.228 265.994 139.569 265.994H87.7517C86.853 265.991 85.9921 265.633 85.3566 264.997C84.7211 264.362 84.3626 263.501 84.3594 262.603V259.459C84.3594 258.56 84.7168 257.697 85.353 257.061C85.9891 256.425 86.852 256.067 87.7517 256.067H139.556C139.883 256.066 140.206 256.128 140.508 256.252C140.811 256.375 141.085 256.557 141.317 256.786C141.549 257.016 141.734 257.289 141.86 257.59C141.987 257.891 142.052 258.214 142.054 258.54Z" fill="black"/>
</svg>
