<svg width="386" height="250" viewBox="0 0 386 250" fill="none" xmlns="http://www.w3.org/2000/svg">
<path d="M279.114 144.914C278.484 143.102 278.69 141.2 279.524 139.632C279.875 138.972 279.831 138.158 279.405 137.544C278.695 136.521 277.888 136.002 277.312 135.743L262.404 141.008L267.865 156.731C267.576 157.103 267.193 157.492 266.677 157.856C266.068 158.286 265.261 158.331 264.605 157.976C263.05 157.135 261.164 156.928 259.367 157.563C255.736 158.845 253.941 163.039 255.654 166.639C256.966 169.395 260.092 170.887 263.039 170.166C265.329 169.606 266.992 167.937 267.685 165.906C267.986 165.023 268.815 164.427 269.739 164.488C270.061 164.509 270.344 164.562 270.608 164.626L276.296 181L292.816 175.165C292.826 175.076 292.842 174.994 292.848 174.901C292.908 173.969 292.318 173.133 291.442 172.829C289.428 172.131 287.773 170.453 287.218 168.144C286.504 165.173 287.982 162.02 290.716 160.697C294.286 158.97 298.445 160.78 299.716 164.442C300.346 166.254 300.141 168.156 299.306 169.724C298.955 170.384 298.999 171.198 299.425 171.812C299.638 172.118 299.859 172.376 300.08 172.598L315.955 166.991L310.42 151.058C310.666 150.793 310.962 150.525 311.324 150.271C311.932 149.841 312.739 149.796 313.395 150.151C314.95 150.992 316.836 151.199 318.633 150.564C322.264 149.282 324.059 145.088 322.346 141.488C321.034 138.732 317.908 137.24 314.961 137.961C312.671 138.521 311.008 140.19 310.315 142.221C310.014 143.104 309.185 143.7 308.261 143.639C308.106 143.628 307.965 143.606 307.824 143.585L302.063 127L286.505 132.495C286.277 132.938 286.038 133.593 285.982 134.455C285.922 135.387 286.512 136.223 287.388 136.527C289.402 137.225 291.057 138.902 291.612 141.211C292.327 144.183 290.848 147.336 288.114 148.658C284.544 150.386 280.385 148.576 279.114 144.914Z" fill="#121D23"/>
<path opacity="0.9" d="M68.7111 195.271C69.6639 193.835 71.1285 192.959 72.6931 192.721C73.3522 192.62 73.908 192.149 74.1168 191.508C74.4646 190.439 74.401 189.572 74.2764 189.013L62.5267 181L54.2589 193.457C53.8389 193.446 53.3562 193.377 52.8198 193.198C52.1867 192.986 51.7219 192.423 51.6231 191.755C51.3879 190.169 50.5233 188.684 49.1071 187.718C46.2454 185.767 42.2953 186.722 40.6504 189.911C39.391 192.352 40.0064 195.433 42.1007 197.189C43.728 198.554 45.8094 198.865 47.6274 198.274C48.4181 198.017 49.2869 198.299 49.7396 199.005C49.8973 199.251 50.0115 199.485 50.1081 199.711L41.4976 212.684L54.5185 221.563C54.5871 221.523 54.6534 221.491 54.7234 221.445C55.4198 220.986 55.6983 220.105 55.4447 219.304C54.8612 217.46 55.1683 215.351 56.5148 213.702C58.2479 211.579 61.2869 210.955 63.6957 212.231C66.8413 213.899 67.7835 217.903 65.8583 220.803C64.9055 222.239 63.4409 223.116 61.8763 223.354C61.2172 223.454 60.6614 223.925 60.4525 224.567C60.3484 224.887 60.2837 225.187 60.244 225.468L72.7558 234L81.1342 221.377C81.4548 221.412 81.8042 221.484 82.1799 221.609C82.813 221.821 83.2778 222.384 83.3769 223.052C83.6118 224.638 84.4764 226.123 85.8929 227.089C88.7546 229.04 92.7047 228.085 94.3496 224.896C95.609 222.455 94.9936 219.374 92.8993 217.618C91.272 216.253 89.1909 215.942 87.3726 216.533C86.5819 216.79 85.7131 216.508 85.2604 215.802C85.1845 215.684 85.1254 215.57 85.0644 215.455L93.7852 202.316L81.5228 193.954C81.0852 194.027 80.4902 194.205 79.8465 194.63C79.1502 195.089 78.8716 195.969 79.1253 196.771C79.7088 198.614 79.4016 200.723 78.0552 202.373C76.3223 204.496 73.283 205.119 70.8743 203.843C67.728 202.176 66.7859 198.172 68.7111 195.271Z" fill="#ECECEC"/>
<g opacity="0.9">
<path d="M310.208 39.3672C310.586 37.9403 311.537 36.819 312.749 36.1838C313.26 35.9163 313.582 35.379 313.574 34.8027C313.559 33.843 313.265 33.1626 313.007 32.7465L301.168 29.6162L297.894 41.9978C297.548 42.1085 297.135 42.1893 296.646 42.1967C296.07 42.2054 295.533 41.883 295.265 41.3724C294.63 40.1605 293.509 39.2091 292.082 38.8318C289.198 38.0693 286.238 39.9578 285.785 42.9938C285.438 45.3184 286.802 47.627 289.004 48.4498C290.714 49.089 292.502 48.7504 293.822 47.7588C294.396 47.3275 295.185 47.309 295.752 47.7496C295.95 47.9029 296.108 48.0597 296.25 48.2146L292.84 61.1094L305.959 64.5784C306.004 64.5263 306.049 64.4812 306.093 64.4245C306.534 63.8574 306.516 63.0686 306.084 62.4944C305.093 61.1743 304.754 59.3869 305.393 57.6761C306.216 55.4744 308.525 54.1109 310.849 54.4576C313.885 54.9106 315.774 57.8709 315.011 60.7543C314.634 62.1813 313.682 63.3025 312.471 63.9376C311.96 64.2051 311.638 64.7424 311.646 65.3184C311.651 65.6058 311.682 65.8658 311.728 66.1038L324.334 69.4373L327.652 56.8898C327.923 56.8277 328.229 56.7863 328.571 56.7811C329.147 56.7724 329.684 57.0948 329.952 57.6051C330.587 58.8169 331.708 59.7685 333.135 60.146C336.018 60.9084 338.979 59.02 339.432 55.9839C339.778 53.6591 338.415 51.3507 336.213 50.528C334.502 49.8887 332.715 50.2273 331.395 51.219C330.821 51.6503 330.032 51.6685 329.465 51.2282C329.37 51.1543 329.29 51.0793 329.208 51.0041L332.662 37.9437L320.307 34.6768C319.97 34.8597 319.534 35.1722 319.126 35.6966C318.686 36.2636 318.704 37.0522 319.135 37.6266C320.127 38.9467 320.466 40.7341 319.826 42.4449C319.004 44.6467 316.695 46.0102 314.37 45.6634C311.334 45.2109 309.446 42.2504 310.208 39.3672Z" fill="#ECECEC"/>
</g>
<path d="M365.843 220.37C367.273 220.729 368.404 221.665 369.053 222.867C369.326 223.373 369.866 223.688 370.442 223.672C371.399 223.646 372.076 223.344 372.487 223.082L375.465 211.232L363.064 208.115C362.949 207.771 362.863 207.36 362.85 206.872C362.834 206.298 363.149 205.757 363.656 205.484C364.858 204.836 365.793 203.706 366.152 202.277C366.878 199.391 364.956 196.46 361.919 196.045C359.594 195.727 357.307 197.116 356.513 199.323C355.896 201.038 356.256 202.817 357.262 204.122C357.7 204.69 357.728 205.477 357.295 206.048C357.145 206.247 356.99 206.407 356.837 206.551L343.922 203.305L340.622 216.437C340.675 216.481 340.72 216.525 340.778 216.569C341.349 217.002 342.136 216.974 342.704 216.537C344.01 215.531 345.79 215.171 347.506 215.789C349.714 216.583 351.104 218.87 350.786 221.193C350.372 224.228 347.44 226.148 344.552 225.423C343.123 225.064 341.992 224.127 341.343 222.926C341.069 222.42 340.529 222.105 339.954 222.12C339.668 222.128 339.408 222.162 339.171 222.211L336 234.83L348.567 237.988C348.633 238.259 348.678 238.563 348.687 238.904C348.703 239.479 348.388 240.019 347.881 240.292C346.68 240.941 345.744 242.071 345.385 243.499C344.659 246.386 346.581 249.316 349.618 249.731C351.943 250.049 354.231 248.661 355.024 246.453C355.641 244.739 355.281 242.959 354.275 241.654C353.837 241.086 353.809 240.3 354.242 239.729C354.314 239.633 354.388 239.552 354.462 239.469L367.543 242.757L370.651 230.39C370.464 230.055 370.147 229.624 369.618 229.224C369.047 228.791 368.26 228.819 367.692 229.256C366.386 230.262 364.606 230.621 362.89 230.004C360.682 229.21 359.292 226.923 359.61 224.599C360.024 221.565 362.955 219.645 365.843 220.37Z" fill="#121D23"/>
<path opacity="0.9" d="M107.285 55.5068C108.752 56.0098 109.855 57.0918 110.429 58.4096C110.671 58.9647 111.21 59.3431 111.815 59.3776C112.822 59.4348 113.557 59.1779 114.012 58.9388L118.188 46.7686L105.457 42.4032C105.367 42.0323 105.314 41.5926 105.343 41.0802C105.378 40.4756 105.756 39.937 106.311 39.6953C107.629 39.1208 108.711 38.0177 109.215 36.5509C110.231 33.5867 108.476 30.3419 105.328 29.6381C102.918 29.0994 100.395 30.3542 99.3664 32.5996C98.5673 34.3443 98.7872 36.2432 99.7268 37.7013C100.135 38.3355 100.095 39.1635 99.5904 39.7246C99.4147 39.9199 99.2385 40.0746 99.0656 40.2117L85.8078 35.6654L81.181 49.1522C81.2323 49.203 81.2759 49.2537 81.3322 49.3045C81.8933 49.8091 82.7213 49.8492 83.3557 49.4406C84.8143 48.501 86.7134 48.281 88.458 49.08C90.7037 50.1084 91.9584 52.6306 91.4195 55.0406C90.7154 58.1879 87.47 59.9437 84.5056 58.9272C83.0383 58.4242 81.9351 57.3423 81.361 56.0245C81.119 55.4694 80.5804 55.091 79.9759 55.0565C79.6745 55.0393 79.3993 55.0522 79.1466 55.0825L74.7007 68.0421L87.6012 72.4658C87.6456 72.7555 87.6661 73.0786 87.6456 73.4375C87.6111 74.0422 87.2329 74.5807 86.6777 74.8227C85.3597 75.3968 84.2775 76.5 83.7743 77.9671C82.7575 80.9312 84.5133 84.1761 87.661 84.8798C90.0713 85.4186 92.5941 84.1637 93.6225 81.9183C94.4217 80.1736 94.2019 78.275 93.2622 76.8166C92.8536 76.1824 92.8939 75.3545 93.3986 74.7934C93.4832 74.6993 93.5681 74.621 93.6528 74.5409L107.081 79.1454L111.438 66.4443C111.272 66.0773 110.977 65.5965 110.458 65.1301C109.897 64.6255 109.069 64.5853 108.435 64.9939C106.976 65.9336 105.077 66.1535 103.333 65.3546C101.087 64.3264 99.8322 61.804 100.371 59.394C101.075 56.2462 104.32 54.4903 107.285 55.5068Z" fill="#ECECEC"/>
</svg>
