<svg width="65" height="67" viewBox="0 0 65 67" fill="none" xmlns="http://www.w3.org/2000/svg">
<ellipse cx="32.5" cy="33.6033" rx="32.5" ry="32.4958" fill="#FFE49B"/>
<g clip-path="url(#clip0_4250_3481)">
<path d="M33.4688 30.8047V4.70767C33.4688 0.848514 38.8609 -0.118814 40.8666 2.90169C43.5774 2.27946 48.7714 4.75188 47.065 10.6641C51.9634 12.752 52.3333 20.2732 47.0176 23.0629C47.7176 26.9528 44.6382 30.8304 41.4557 30.9531C40.3728 35.2294 33.8081 34.5992 33.4688 30.8047Z" fill="#FFC727"/>
<path d="M41.6064 5.60975C41.6064 4.49016 41.3249 3.59183 40.8666 2.90169M41.6064 29.6764C41.6064 30.1426 41.5533 30.5678 41.4557 30.9531M40.8666 2.90169C38.8609 -0.118814 33.4688 0.848514 33.4688 4.70767V30.8047C33.8081 34.5992 40.3728 35.2294 41.4557 30.9531M40.8666 2.90169C43.5774 2.27946 48.7714 4.75188 47.065 10.6641M46.415 12.376C46.6944 11.7763 46.9087 11.2058 47.065 10.6641M41.4557 30.9531C44.6382 30.8304 47.7176 26.9528 47.0176 23.0629M46.0451 20.6492C46.558 21.4313 46.8708 22.2474 47.0176 23.0629M47.0176 23.0629C52.3333 20.2732 51.9634 12.752 47.065 10.6641" stroke="#FF7A00" stroke-width="1.4646" stroke-linecap="round"/>
<path d="M41.2377 27.4184C40.4764 25.8078 39.8783 25.4056 38.6484 25.1621" stroke="#FF7A00" stroke-width="1.62479" stroke-linecap="round"/>
<path d="M44.933 19.145C44.1717 17.5344 43.5736 17.1322 42.3438 16.8887" stroke="#FF7A00" stroke-width="1.62479" stroke-linecap="round"/>
<path d="M39.3858 10.4966C40.9894 9.76476 41.4004 9.16737 41.6719 7.92383" stroke="#FF7A00" stroke-width="1.62479" stroke-linecap="round"/>
<path d="M33.1172 30.7793V4.68228C33.1172 0.823124 27.7251 -0.144204 25.7193 2.8763C23.0085 2.25407 17.8145 4.72649 19.5209 10.6387C14.6225 12.7267 14.2526 20.2478 19.5684 23.0375C18.8683 26.9274 21.9478 30.805 25.1302 30.9277C26.2132 35.204 32.7779 34.5739 33.1172 30.7793Z" fill="#FFB627"/>
<path d="M24.9795 5.58436C24.9795 4.46477 25.261 3.56644 25.7193 2.8763M24.9795 29.651C24.9795 30.1172 25.0326 30.5424 25.1302 30.9277M25.7193 2.8763C27.7251 -0.144204 33.1172 0.823124 33.1172 4.68228V30.7793C32.7779 34.5739 26.2132 35.204 25.1302 30.9277M25.7193 2.8763C23.0085 2.25407 17.8145 4.72649 19.5209 10.6387M20.1709 12.3507C19.8915 11.751 19.6773 11.1804 19.5209 10.6387M25.1302 30.9277C21.9478 30.805 18.8683 26.9274 19.5684 23.0375M20.5408 20.6238C20.028 21.4059 19.7151 22.222 19.5684 23.0375M19.5684 23.0375C14.2526 20.2478 14.6225 12.7267 19.5209 10.6387" stroke="#FF7A00" stroke-width="1.4646" stroke-linecap="round"/>
<path d="M25.3482 27.3931C26.1096 25.7824 26.7077 25.3802 27.9375 25.1367" stroke="#FF7A00" stroke-width="1.62479" stroke-linecap="round"/>
<path d="M21.6529 19.1196C22.4143 17.509 23.0124 17.1068 24.2422 16.8633" stroke="#FF7A00" stroke-width="1.62479" stroke-linecap="round"/>
<path d="M27.2001 10.4712C25.5966 9.73937 25.1855 9.14198 24.9141 7.89844" stroke="#FF7A00" stroke-width="1.62479" stroke-linecap="round"/>
<path d="M54.4141 42.2582C54.4141 41.0617 53.4441 40.0918 52.2477 40.0918H15.4534C13.7709 40.0918 12.407 41.4557 12.407 43.1382C12.407 44.8207 13.7709 46.1846 15.4534 46.1846H52.2477C53.4441 46.1846 54.4141 45.2147 54.4141 44.0182V42.2582Z" fill="white"/>
<path d="M54.7354 36.8438C56.5125 36.8438 57.9531 38.5553 57.9531 40.6667V46.0188C57.9531 48.1302 56.5125 49.8418 54.7354 49.8418H11.9209C10.8653 49.8418 10.0095 48.986 10.0095 47.9303C10.0095 46.8746 10.8653 46.0188 11.9209 46.0188H52.7592C53.6478 46.0188 54.3681 45.163 54.3681 44.1074L54.3681 42.4109C54.3681 41.3552 53.6478 40.4994 52.7592 40.4994L11.7254 40.293C10.7763 40.2883 10.0095 39.5175 10.0095 38.5684C10.0095 37.6159 10.7816 36.8438 11.7341 36.8438H54.7354Z" fill="#263238"/>
<path d="M12.75 55.2543C12.75 54.0578 13.7199 53.0879 14.9164 53.0879H51.7106C53.3931 53.0879 54.757 54.4518 54.757 56.1343C54.757 57.8168 53.3931 59.1807 51.7106 59.1807H14.9164C13.7199 59.1807 12.75 58.2108 12.75 57.0143V55.2543Z" fill="white"/>
<path d="M12.4286 49.8398C10.6515 49.8398 9.21094 51.5514 9.21094 53.6628V59.0149C9.21094 61.1263 10.6515 62.8379 12.4286 62.8379H55.2431C56.2988 62.8379 57.1546 61.9821 57.1546 60.9264C57.1546 59.8707 56.2988 59.0149 55.2431 59.0149H14.4048C13.5163 59.0149 12.796 58.1591 12.796 57.1034L12.796 55.407C12.796 54.3513 13.5163 53.4955 14.4048 53.4955L55.4386 53.2891C56.3877 53.2844 57.1546 52.5136 57.1546 51.5645C57.1546 50.612 56.3824 49.8398 55.4299 49.8398H12.4286Z" fill="#37474F"/>
<path d="M55.5461 2.17887C55.5461 1.58066 55.0612 1.0957 54.463 1.0957C53.8648 1.0957 53.3798 1.58066 53.3798 2.17888V3.80362H51.755C51.1568 3.80362 50.6719 4.28857 50.6719 4.88679C50.6719 5.48501 51.1568 5.96996 51.755 5.96996H53.3798V7.59471C53.3798 8.19293 53.8648 8.67788 54.463 8.67788C55.0612 8.67788 55.5461 8.19292 55.5461 7.59471V5.96996H57.1709C57.7691 5.96996 58.2541 5.48501 58.2541 4.88679C58.2541 4.28857 57.7691 3.80362 57.1709 3.80362H55.5461V2.17887Z" fill="#FFB627"/>
<path d="M51.7211 28.5105C51.7211 28.0711 51.3649 27.7148 50.9254 27.7148C50.486 27.7148 50.1298 28.0711 50.1298 28.5105V29.704H48.9363C48.4969 29.704 48.1406 30.0602 48.1406 30.4997C48.1406 30.9391 48.4969 31.2953 48.9363 31.2953H50.1298V32.4888C50.1298 32.9282 50.486 33.2845 50.9254 33.2845C51.3649 33.2845 51.7211 32.9282 51.7211 32.4888V31.2953H52.9146C53.354 31.2953 53.7103 30.9391 53.7103 30.4997C53.7103 30.0602 53.354 29.704 52.9146 29.704H51.7211V28.5105Z" fill="#FFB627"/>
<path d="M5.88541 14.1783C5.88541 13.5049 5.3395 12.959 4.66608 12.959C3.99267 12.959 3.44675 13.5049 3.44675 14.1783V16.0073H1.61776C0.944347 16.0073 0.398438 16.5532 0.398438 17.2266C0.398438 17.9 0.944347 18.4459 1.61776 18.4459H3.44675V20.2749C3.44675 20.9483 3.99267 21.4942 4.66608 21.4942C5.3395 21.4942 5.88541 20.9483 5.88541 20.2749V18.4459H7.7144C8.38782 18.4459 8.93373 17.9 8.93373 17.2266C8.93373 16.5532 8.38782 16.0073 7.7144 16.0073H5.88541V14.1783Z" fill="#FFB627"/>
<path d="M11.2561 23.415C11.2561 23.0326 10.9461 22.7227 10.5638 22.7227C10.1814 22.7227 9.87145 23.0326 9.87145 23.415V24.4535H8.83295C8.45059 24.4535 8.14062 24.7634 8.14062 25.1458C8.14062 25.5282 8.45059 25.8381 8.83295 25.8381H9.87145V26.8766C9.87145 27.259 10.1814 27.5689 10.5638 27.5689C10.9461 27.5689 11.2561 27.259 11.2561 26.8766V25.8381H12.2946C12.677 25.8381 12.9869 25.5282 12.9869 25.1458C12.9869 24.7634 12.677 24.4535 12.2946 24.4535H11.2561V23.415Z" fill="#FFB627"/>
<path fill-rule="evenodd" clip-rule="evenodd" d="M44.9688 46.4277H49.6966V47.0621V50.4166C49.6966 50.4442 49.6872 50.4714 49.6693 50.4956C49.6515 50.5197 49.6258 50.54 49.5946 50.5545C49.5635 50.5691 49.528 50.5773 49.4914 50.5786C49.4549 50.5798 49.4185 50.574 49.3857 50.5617L47.3327 49.7863L45.2796 50.5621C45.2469 50.5745 45.2104 50.5803 45.1738 50.579C45.1372 50.5777 45.1017 50.5694 45.0705 50.5548C45.0393 50.5403 45.0136 50.5199 44.9958 50.4957C44.978 50.4715 44.9687 50.4443 44.9688 50.4166V47.0621V46.4277Z" fill="#DD334D"/>
</g>
<mask id="mask0_4250_3481" style="mask-type:alpha" maskUnits="userSpaceOnUse" x="0" y="1" width="65" height="66">
<ellipse cx="32.5" cy="33.6013" rx="32.5" ry="32.4958" fill="#FFE292"/>
</mask>
<g mask="url(#mask0_4250_3481)">
<path d="M33.4688 30.8047V4.70767C33.4688 0.848514 38.8615 -0.118814 40.8675 2.90169C43.5786 2.27946 48.7733 4.75188 47.0667 10.6641C51.9657 12.752 52.3356 20.2732 47.0193 23.0629C47.7194 26.9528 44.6395 30.8304 41.4567 30.9531C40.3736 35.2294 33.8081 34.5992 33.4688 30.8047Z" fill="#FFC727"/>
<path d="M41.6074 5.60975C41.6074 4.49016 41.3259 3.59183 40.8675 2.90169M41.6074 29.6764C41.6074 30.1426 41.5543 30.5678 41.4567 30.9531M40.8675 2.90169C38.8615 -0.118814 33.4688 0.848514 33.4688 4.70767V30.8047C33.8081 34.5992 40.3736 35.2294 41.4567 30.9531M40.8675 2.90169C43.5786 2.27946 48.7733 4.75188 47.0667 10.6641M46.4166 12.376C46.6961 11.7763 46.9104 11.2058 47.0667 10.6641M41.4567 30.9531C44.6395 30.8304 47.7194 26.9528 47.0193 23.0629M46.0467 20.6492C46.5596 21.4313 46.8725 22.2474 47.0193 23.0629M47.0193 23.0629C52.3356 20.2732 51.9657 12.752 47.0667 10.6641" stroke="#FF7A00" stroke-width="1.4646" stroke-linecap="round"/>
<path d="M41.2377 27.4184C40.4764 25.8078 39.8783 25.4056 38.6484 25.1621" stroke="#FF7A00" stroke-width="1.62479" stroke-linecap="round"/>
<path d="M44.9408 19.145C44.1795 17.5344 43.5814 17.1322 42.3516 16.8887" stroke="#FF7A00" stroke-width="1.62479" stroke-linecap="round"/>
<path d="M39.3858 10.4966C40.9894 9.76476 41.4004 9.16737 41.6719 7.92383" stroke="#FF7A00" stroke-width="1.62479" stroke-linecap="round"/>
<path d="M33.1172 30.7793V4.68228C33.1172 0.823124 27.7244 -0.144204 25.7184 2.8763C23.0073 2.25407 17.8126 4.72649 19.5192 10.6387C14.6202 12.7267 14.2503 20.2478 19.5667 23.0375C18.8666 26.9274 21.9464 30.805 25.1292 30.9277C26.2123 35.204 32.7778 34.5739 33.1172 30.7793Z" fill="#FFB627"/>
<path d="M24.9785 5.58436C24.9785 4.46477 25.2601 3.56644 25.7184 2.8763M24.9785 29.651C24.9785 30.1172 25.0316 30.5424 25.1292 30.9277M25.7184 2.8763C27.7244 -0.144204 33.1172 0.823124 33.1172 4.68228V30.7793C32.7778 34.5739 26.2123 35.204 25.1292 30.9277M25.7184 2.8763C23.0073 2.25407 17.8126 4.72649 19.5192 10.6387M20.1693 12.3507C19.8899 11.751 19.6756 11.1804 19.5192 10.6387M25.1292 30.9277C21.9464 30.805 18.8666 26.9274 19.5667 23.0375M20.5393 20.6238C20.0264 21.4059 19.7134 22.222 19.5667 23.0375M19.5667 23.0375C14.2503 20.2478 14.6202 12.7267 19.5192 10.6387" stroke="#FF7A00" stroke-width="1.4646" stroke-linecap="round"/>
<path d="M25.3482 27.3931C26.1096 25.7824 26.7077 25.3802 27.9375 25.1367" stroke="#FF7A00" stroke-width="1.62479" stroke-linecap="round"/>
<path d="M21.6451 19.1196C22.4065 17.509 23.0046 17.1068 24.2344 16.8633" stroke="#FF7A00" stroke-width="1.62479" stroke-linecap="round"/>
<path d="M27.2001 10.4712C25.5966 9.73937 25.1855 9.14198 24.9141 7.89844" stroke="#FF7A00" stroke-width="1.62479" stroke-linecap="round"/>
<path d="M54.4219 42.2582C54.4219 41.0617 53.4519 40.0918 52.2555 40.0918H15.456C13.7735 40.0918 12.4096 41.4557 12.4096 43.1382C12.4096 44.8207 13.7735 46.1846 15.456 46.1846H52.2555C53.4519 46.1846 54.4219 45.2147 54.4219 44.0182V42.2582Z" fill="white"/>
<path d="M54.7428 36.8438C56.5201 36.8438 57.9609 38.5553 57.9609 40.6667V46.0188C57.9609 48.1302 56.5201 49.8418 54.7428 49.8418H11.9228C10.8671 49.8418 10.0113 48.986 10.0113 47.9303C10.0113 46.8746 10.8671 46.0188 11.9228 46.0188H52.7664C53.655 46.0188 54.3754 45.163 54.3754 44.1074L54.3754 42.4109C54.3754 41.3552 53.655 40.4994 52.7664 40.4994L11.7273 40.293C10.7782 40.2883 10.0113 39.5175 10.0113 38.5684C10.0113 37.6159 10.7835 36.8438 11.736 36.8438H54.7428Z" fill="#263238"/>
<path d="M12.75 55.2543C12.75 54.0578 13.7199 53.0879 14.9164 53.0879H51.7158C53.3983 53.0879 54.7623 54.4518 54.7623 56.1343C54.7623 57.8168 53.3983 59.1807 51.7159 59.1807H14.9164C13.7199 59.1807 12.75 58.2108 12.75 57.0143V55.2543Z" fill="white"/>
<path d="M12.429 49.8398C10.6517 49.8398 9.21094 51.5514 9.21094 53.6628V59.0149C9.21094 61.1263 10.6517 62.8379 12.429 62.8379H55.2491C56.3048 62.8379 57.1606 61.9821 57.1606 60.9264C57.1606 59.8707 56.3048 59.0149 55.2491 59.0149H14.4055C13.5168 59.0149 12.7964 58.1591 12.7964 57.1034L12.7964 55.407C12.7964 54.3513 13.5168 53.4955 14.4055 53.4955L55.4446 53.2891C56.3937 53.2844 57.1606 52.5136 57.1606 51.5645C57.1606 50.612 56.3884 49.8398 55.4359 49.8398H12.429Z" fill="#37474F"/>
<path d="M55.554 2.17887C55.554 1.58066 55.069 1.0957 54.4708 1.0957C53.8726 1.0957 53.3876 1.58066 53.3876 2.17888V3.80362H51.7629C51.1646 3.80362 50.6797 4.28857 50.6797 4.88679C50.6797 5.48501 51.1646 5.96996 51.7629 5.96996H53.3876V7.59471C53.3876 8.19293 53.8726 8.67788 54.4708 8.67788C55.069 8.67788 55.554 8.19292 55.554 7.59471V5.96996H57.1787C57.7769 5.96996 58.2619 5.48501 58.2619 4.88679C58.2619 4.28857 57.7769 3.80362 57.1787 3.80362H55.554V2.17887Z" fill="#FFB627"/>
<path d="M51.7289 28.5105C51.7289 28.0711 51.3727 27.7148 50.9333 27.7148C50.4938 27.7148 50.1376 28.0711 50.1376 28.5105V29.704H48.9441C48.5047 29.704 48.1484 30.0602 48.1484 30.4997C48.1484 30.9391 48.5047 31.2953 48.9441 31.2953H50.1376V32.4888C50.1376 32.9282 50.4938 33.2845 50.9333 33.2845C51.3727 33.2845 51.7289 32.9282 51.7289 32.4888V31.2953H52.9224C53.3618 31.2953 53.7181 30.9391 53.7181 30.4997C53.7181 30.0602 53.3618 29.704 52.9224 29.704H51.7289V28.5105Z" fill="#FFB627"/>
<path d="M5.88541 14.1783C5.88541 13.5049 5.3395 12.959 4.66608 12.959C3.99267 12.959 3.44675 13.5049 3.44675 14.1783V16.0073H1.61776C0.944347 16.0073 0.398438 16.5532 0.398438 17.2266C0.398438 17.9 0.944347 18.4459 1.61776 18.4459H3.44675V20.2749C3.44675 20.9483 3.99267 21.4942 4.66608 21.4942C5.3395 21.4942 5.88541 20.9483 5.88541 20.2749V18.4459H7.7144C8.38782 18.4459 8.93373 17.9 8.93373 17.2266C8.93373 16.5532 8.38782 16.0073 7.7144 16.0073H5.88541V14.1783Z" fill="#FFB627"/>
<path d="M11.2561 23.415C11.2561 23.0326 10.9461 22.7227 10.5638 22.7227C10.1814 22.7227 9.87145 23.0326 9.87145 23.415V24.4535H8.83295C8.45059 24.4535 8.14062 24.7634 8.14062 25.1458C8.14062 25.5282 8.45059 25.8381 8.83295 25.8381H9.87145V26.8766C9.87145 27.259 10.1814 27.5689 10.5638 27.5689C10.9461 27.5689 11.2561 27.259 11.2561 26.8766V25.8381H12.2946C12.677 25.8381 12.9869 25.5282 12.9869 25.1458C12.9869 24.7634 12.677 24.4535 12.2946 24.4535H11.2561V23.415Z" fill="#FFB627"/>
<path fill-rule="evenodd" clip-rule="evenodd" d="M44.1172 52.0391H48.7554V52.7531V56.5287C48.7554 56.5598 48.7462 56.5904 48.7286 56.6176C48.7111 56.6447 48.6859 56.6676 48.6554 56.6839C48.6248 56.7003 48.59 56.7096 48.5541 56.711C48.5182 56.7124 48.4825 56.7058 48.4504 56.6919L46.4363 55.8193L44.4222 56.6924C44.39 56.7063 44.3543 56.7129 44.3184 56.7115C44.2825 56.7101 44.2476 56.7007 44.217 56.6843C44.1864 56.6679 44.1612 56.645 44.1438 56.6177C44.1263 56.5905 44.1171 56.5598 44.1172 56.5287V52.7531V52.0391Z" fill="#DD334D"/>
</g>
<path d="M33.4688 31.9849V4.85371C33.4688 0.841619 38.8609 -0.164043 40.8666 2.97616C43.5774 2.32928 48.7714 4.89967 47.065 11.0462C51.9634 13.2169 52.3333 21.0361 47.0176 23.9363C47.7176 27.9804 44.6382 32.0116 41.4557 32.1392C40.3728 36.5849 33.8081 35.9298 33.4688 31.9849Z" fill="#FFC727"/>
<path d="M41.6064 5.79154C41.6064 4.62758 41.3249 3.69365 40.8666 2.97616M41.6064 30.8119C41.6064 31.2966 41.5533 31.7386 41.4557 32.1392M40.8666 2.97616C38.8609 -0.164043 33.4688 0.841619 33.4688 4.85371V31.9849C33.8081 35.9298 40.3728 36.5849 41.4557 32.1392M40.8666 2.97616C43.5774 2.32928 48.7714 4.89967 47.065 11.0462M46.415 12.826C46.6944 12.2025 46.9087 11.6093 47.065 11.0462M41.4557 32.1392C44.6382 32.0116 47.7176 27.9804 47.0176 23.9363M46.0451 21.427C46.558 22.2401 46.8708 23.0885 47.0176 23.9363M47.0176 23.9363C52.3333 21.0361 51.9634 13.2169 47.065 11.0462" stroke="#FF7A00" stroke-width="1.4646" stroke-linecap="round"/>
<path d="M41.2377 28.4649C40.4764 26.7904 39.8783 26.3723 38.6484 26.1191" stroke="#FF7A00" stroke-width="1.62479" stroke-linecap="round"/>
<path d="M44.933 19.8633C44.1717 18.1889 43.5736 17.7707 42.3438 17.5176" stroke="#FF7A00" stroke-width="1.62479" stroke-linecap="round"/>
<path d="M39.3858 10.868C40.9894 10.1072 41.4004 9.48618 41.6719 8.19336" stroke="#FF7A00" stroke-width="1.62479" stroke-linecap="round"/>
<path d="M33.1172 31.9556V4.82441C33.1172 0.812322 27.7251 -0.19334 25.7193 2.94686C23.0085 2.29998 17.8145 4.87037 19.5209 11.0169C14.6225 13.1876 14.2526 21.0068 19.5684 23.907C18.8683 27.9511 21.9478 31.9823 25.1302 32.1099C26.2132 36.5556 32.7779 35.9005 33.1172 31.9556Z" fill="#FFB627"/>
<path d="M24.9795 5.76224C24.9795 4.59828 25.261 3.66435 25.7193 2.94686M24.9795 30.7826C24.9795 31.2673 25.0326 31.7093 25.1302 32.1099M25.7193 2.94686C27.7251 -0.19334 33.1172 0.812322 33.1172 4.82441V31.9556C32.7779 35.9005 26.2132 36.5556 25.1302 32.1099M25.7193 2.94686C23.0085 2.29998 17.8145 4.87037 19.5209 11.0169M20.1709 12.7967C19.8915 12.1732 19.6773 11.58 19.5209 11.0169M25.1302 32.1099C21.9478 31.9823 18.8683 27.9511 19.5684 23.907M20.5408 21.3977C20.028 22.2108 19.7151 23.0592 19.5684 23.907M19.5684 23.907C14.2526 21.0068 14.6225 13.1876 19.5209 11.0169" stroke="#FF7A00" stroke-width="1.4646" stroke-linecap="round"/>
<path d="M25.3482 28.4356C26.1096 26.7611 26.7077 26.343 27.9375 26.0898" stroke="#FF7A00" stroke-width="1.62479" stroke-linecap="round"/>
<path d="M21.6529 19.834C22.4143 18.1596 23.0124 17.7414 24.2422 17.4883" stroke="#FF7A00" stroke-width="1.62479" stroke-linecap="round"/>
<path d="M27.2001 10.8446C25.5966 10.0838 25.1855 9.46274 24.9141 8.16992" stroke="#FF7A00" stroke-width="1.62479" stroke-linecap="round"/>
<path d="M54.4141 42.2582C54.4141 41.0617 53.4441 40.0918 52.2477 40.0918H15.4534C13.7709 40.0918 12.407 41.4557 12.407 43.1382C12.407 44.8207 13.7709 46.1846 15.4534 46.1846H52.2477C53.4441 46.1846 54.4141 45.2147 54.4141 44.0182V42.2582Z" fill="white"/>
<path d="M54.7354 36.8438C56.5125 36.8438 57.9531 38.5553 57.9531 40.6667V46.0188C57.9531 48.1302 56.5125 49.8418 54.7354 49.8418H11.9209C10.8653 49.8418 10.0095 48.986 10.0095 47.9303C10.0095 46.8746 10.8653 46.0188 11.9209 46.0188H52.7592C53.6478 46.0188 54.3681 45.163 54.3681 44.1074L54.3681 42.4109C54.3681 41.3552 53.6478 40.4994 52.7592 40.4994L11.7254 40.293C10.7763 40.2883 10.0095 39.5175 10.0095 38.5684C10.0095 37.6159 10.7816 36.8438 11.7341 36.8438H54.7354Z" fill="#263238"/>
<path d="M55.5461 2.17887C55.5461 1.58066 55.0612 1.0957 54.463 1.0957C53.8648 1.0957 53.3798 1.58066 53.3798 2.17888V3.80362H51.755C51.1568 3.80362 50.6719 4.28857 50.6719 4.88679C50.6719 5.48501 51.1568 5.96996 51.755 5.96996H53.3798V7.59471C53.3798 8.19293 53.8648 8.67788 54.463 8.67788C55.0612 8.67788 55.5461 8.19292 55.5461 7.59471V5.96996H57.1709C57.7691 5.96996 58.2541 5.48501 58.2541 4.88679C58.2541 4.28857 57.7691 3.80362 57.1709 3.80362H55.5461V2.17887Z" fill="#FFB627"/>
<path d="M51.7211 28.5105C51.7211 28.0711 51.3649 27.7148 50.9254 27.7148C50.486 27.7148 50.1298 28.0711 50.1298 28.5105V29.704H48.9363C48.4969 29.704 48.1406 30.0602 48.1406 30.4997C48.1406 30.9391 48.4969 31.2953 48.9363 31.2953H50.1298V32.4888C50.1298 32.9282 50.486 33.2845 50.9254 33.2845C51.3649 33.2845 51.7211 32.9282 51.7211 32.4888V31.2953H52.9146C53.354 31.2953 53.7103 30.9391 53.7103 30.4997C53.7103 30.0602 53.354 29.704 52.9146 29.704H51.7211V28.5105Z" fill="#FFB627"/>
<path d="M5.88541 14.1783C5.88541 13.5049 5.3395 12.959 4.66608 12.959C3.99267 12.959 3.44675 13.5049 3.44675 14.1783V16.0073H1.61776C0.944347 16.0073 0.398438 16.5532 0.398438 17.2266C0.398438 17.9 0.944347 18.4459 1.61776 18.4459H3.44675V20.2749C3.44675 20.9483 3.99267 21.4942 4.66608 21.4942C5.3395 21.4942 5.88541 20.9483 5.88541 20.2749V18.4459H7.7144C8.38782 18.4459 8.93373 17.9 8.93373 17.2266C8.93373 16.5532 8.38782 16.0073 7.7144 16.0073H5.88541V14.1783Z" fill="#FFB627"/>
<path d="M11.2561 23.415C11.2561 23.0326 10.9461 22.7227 10.5638 22.7227C10.1814 22.7227 9.87145 23.0326 9.87145 23.415V24.4535H8.83295C8.45059 24.4535 8.14062 24.7634 8.14062 25.1458C8.14062 25.5282 8.45059 25.8381 8.83295 25.8381H9.87145V26.8766C9.87145 27.259 10.1814 27.5689 10.5638 27.5689C10.9461 27.5689 11.2561 27.259 11.2561 26.8766V25.8381H12.2946C12.677 25.8381 12.9869 25.5282 12.9869 25.1458C12.9869 24.7634 12.677 24.4535 12.2946 24.4535H11.2561V23.415Z" fill="#FFB627"/>
<defs>
<clipPath id="clip0_4250_3481">
<rect width="57.875" height="53.8169" fill="white" transform="translate(0.398438 1.0957)"/>
</clipPath>
</defs>
</svg>
