<svg width="23" height="23" viewBox="0 0 23 23" fill="none" xmlns="http://www.w3.org/2000/svg">
<path fill-rule="evenodd" clip-rule="evenodd" d="M16.7212 10.2674L18.3575 8.08758C19.1681 7.00758 19.5095 5.67691 19.3188 4.33958C19.1281 3.00225 18.4295 1.82091 17.3495 1.01025C15.1215 -0.661755 11.9455 -0.212421 10.2721 2.01824L1.26946 14.0116C-1.4132 17.5889 0.973463 21.8502 1.07613 22.0302C1.2148 22.2716 1.44813 22.4436 1.72013 22.5062C1.79746 22.5249 2.54413 22.6902 3.58546 22.6902C5.26946 22.6902 7.72013 22.2596 9.3548 20.0809L16.5129 10.5449C16.5545 10.5058 16.5934 10.4625 16.6288 10.4153C16.6644 10.3679 16.6952 10.3185 16.7212 10.2674ZM2.61346 20.6276C3.6548 20.7542 6.28146 20.8436 7.7548 18.8796L14.4163 10.0052L9.53008 6.33654L2.86813 15.2116C1.36546 17.2169 2.19213 19.6716 2.61346 20.6276ZM10.7302 4.73771L15.6173 8.40523L16.7575 6.88624C17.7695 5.53958 17.4961 3.62091 16.1495 2.60891C14.8015 1.59958 12.8815 1.87291 11.8708 3.21825L10.7302 4.73771Z" fill="#FFC700"/>
<path d="M21.6212 22.3411H13.1185C12.5665 22.3411 12.1185 21.8931 12.1185 21.3411C12.1185 20.7891 12.5665 20.3411 13.1185 20.3411H21.6212C22.1732 20.3411 22.6212 20.7891 22.6212 21.3411C22.6212 21.8931 22.1732 22.3411 21.6212 22.3411Z" fill="#FFC700"/>
</svg>
