<svg width="65" height="66" viewBox="0 0 65 66" fill="none" xmlns="http://www.w3.org/2000/svg">
<g clip-path="url(#clip0_4250_3444)">
<circle cx="32.5" cy="32.998" r="32.5" fill="#FFE49B"/>
<mask id="mask0_4250_3444" style="mask-type:alpha" maskUnits="userSpaceOnUse" x="0" y="0" width="65" height="66">
<circle cx="32.5" cy="32.9941" r="32.5" fill="#FFE49B"/>
</mask>
<g mask="url(#mask0_4250_3444)">
<rect x="3.25" y="10.8867" width="58.5" height="44.85" rx="5.19999" fill="#3E515A"/>
<path d="M33.3122 55.7367C33.2052 55.3213 33.1484 54.8855 33.1484 54.4367V10.8867H56.5484C59.4203 10.8867 61.7484 13.2147 61.7484 16.0867V50.5367C61.7484 53.4087 59.4203 55.7367 56.5484 55.7367H33.3122Z" fill="#37474F"/>
<rect x="7.14844" y="14.7852" width="50.7" height="40.95" rx="2.59999" fill="#FFC727"/>
<path d="M33.1484 55.7352V14.7852H55.2484C56.6844 14.7852 57.8484 15.9493 57.8484 17.3852V53.1352C57.8484 54.571 56.6844 55.7352 55.2484 55.7352H33.1484Z" fill="#FFB627"/>
<path d="M32.5 65.4895V55.0895H37.7C38.777 55.0895 39.65 54.2164 39.65 53.1395C39.65 52.0625 40.523 51.1895 41.6 51.1895H63.0594C64.1327 51.1895 65.0042 52.0568 65.0093 53.1301L65.028 56.9988C65.0505 61.6814 61.2608 65.4895 56.5781 65.4895H32.5Z" fill="#37474F"/>
<path d="M32.5703 65.4895V55.0895H27.3703C26.2934 55.0895 25.4203 54.2164 25.4203 53.1395C25.4203 52.0625 24.5473 51.1895 23.4703 51.1895H2.01094C0.937649 51.1895 0.0661316 52.0568 0.0609627 53.1301L0.0423431 56.9988C0.0198021 61.6814 3.80954 65.4895 8.49223 65.4895H32.5703Z" fill="#455A64"/>
<path d="M34.7766 35.2535C33.4766 34.503 33.4766 32.6266 34.7766 31.876L47.9391 24.2766C49.2391 23.5261 50.8641 24.4643 50.8641 25.9654V41.1642C50.8641 42.6653 49.2391 43.6035 47.9391 42.8529L34.7766 35.2535Z" fill="#D66C0B"/>
<rect x="14.2969" y="23.8867" width="27.95" height="19.5" rx="2.59999" fill="#37474F"/>
<circle cx="21.45" cy="30.3855" r="1.95" fill="#FF4041"/>
<path d="M33.1484 43.3867V23.8867H39.6484C41.0844 23.8867 42.2484 25.0508 42.2484 26.4867V40.7867C42.2484 42.2227 41.0844 43.3867 39.6484 43.3867H33.1484Z" fill="#263238"/>
</g>
<g clip-path="url(#clip1_4250_3444)">
<rect x="3.25" y="10.8984" width="58.5" height="44.85" rx="5.19999" fill="#3E515A"/>
<path d="M33.3122 55.7485C33.2052 55.333 33.1484 54.8972 33.1484 54.4485V10.8984H56.5484C59.4203 10.8984 61.7484 13.2264 61.7484 16.0984V50.5485C61.7484 53.4204 59.4203 55.7485 56.5484 55.7485H33.3122Z" fill="#37474F"/>
<rect x="7.14844" y="14.7969" width="50.7" height="40.95" rx="2.59999" fill="#FFC727"/>
<path d="M33.1484 55.7469V14.7969H55.2484C56.6844 14.7969 57.8484 15.961 57.8484 17.3969V53.1469C57.8484 54.5827 56.6844 55.7469 55.2484 55.7469H33.1484Z" fill="#FFB627"/>
<path d="M34.7766 35.2652C33.4766 34.5147 33.4766 32.6383 34.7766 31.8877L47.9391 24.2884C49.2391 23.5378 50.8641 24.476 50.8641 25.9771V41.1759C50.8641 42.677 49.2391 43.6152 47.9391 42.8646L34.7766 35.2652Z" fill="#E06B00"/>
<rect x="14.2969" y="23.8984" width="27.95" height="19.5" rx="2.59999" fill="#37474F"/>
<circle cx="21.45" cy="30.3973" r="1.95" fill="#FF4041"/>
<path d="M33.1484 43.3984V23.8984H39.6484C41.0844 23.8984 42.2484 25.0625 42.2484 26.4984V40.7984C42.2484 42.2344 41.0844 43.3984 39.6484 43.3984H33.1484Z" fill="#263238"/>
<path d="M62.9092 17.5857C62.9092 17.1242 62.535 16.75 62.0734 16.75C61.6119 16.75 61.2377 17.1242 61.2377 17.5857V18.8393H59.9842C59.5226 18.8393 59.1484 19.2134 59.1484 19.675C59.1484 20.1366 59.5226 20.5107 59.9842 20.5107H61.2377V21.7643C61.2377 22.2258 61.6119 22.6 62.0734 22.6C62.535 22.6 62.9092 22.2258 62.9092 21.7643V20.5107H64.1627C64.6243 20.5107 64.9984 20.1366 64.9984 19.675C64.9984 19.2134 64.6243 18.8393 64.1627 18.8393H62.9092V17.5857Z" fill="#FFB627"/>
</g>
<path d="M21.2643 1.61233C21.2643 0.99693 20.7654 0.498047 20.15 0.498047C19.5346 0.498047 19.0357 0.99693 19.0357 1.61233V3.28376H17.3643C16.7489 3.28376 16.25 3.78264 16.25 4.39805C16.25 5.01345 16.7489 5.51233 17.3643 5.51233H19.0357V7.18376C19.0357 7.79917 19.5346 8.29805 20.15 8.29805C20.7654 8.29805 21.2643 7.79917 21.2643 7.18376V5.51233H22.9357C23.5511 5.51233 24.05 5.01345 24.05 4.39805C24.05 3.78264 23.5511 3.28376 22.9357 3.28376H21.2643V1.61233Z" fill="#FFB627"/>
</g>
<defs>
<clipPath id="clip0_4250_3444">
<rect width="65" height="65" fill="white" transform="translate(0 0.5)"/>
</clipPath>
<clipPath id="clip1_4250_3444">
<rect width="65" height="29.25" fill="white" transform="translate(0 10.8984)"/>
</clipPath>
</defs>
</svg>
